M48
; DRILL file KiCad 10.0.0 date 2026-06-24T08:29:50
; FORMAT={-:-/ absolute / metric / decimal}
; #@! TF.CreationDate,2026-06-24T08:29:50-03:00
; #@! TF.GenerationSoftware,Kicad,Pcbnew,10.0.0
; #@! TF.FileFunction,Plated,1,2,PTH
FMAT,2
METRIC
; #@! TA.AperFunction,Plated,PTH,ComponentDrill
T1C0.800
; #@! TA.AperFunction,Plated,PTH,ComponentDrill
T2C0.900
; #@! TA.AperFunction,Plated,PTH,ViaDrill
T3C1.000
; #@! TA.AperFunction,Plated,PTH,ComponentDrill
T4C1.000
; #@! TA.AperFunction,Plated,PTH,ComponentDrill
T5C1.100
; #@! TA.AperFunction,Plated,PTH,ComponentDrill
T6C1.300
; #@! TA.AperFunction,Plated,PTH,ComponentDrill
T7C1.500
; #@! TA.AperFunction,Plated,PTH,ComponentDrill
T8C1.600
%
G90
G05
T1
X66.5Y-90.5
X66.5Y-93.0
X73.0Y-90.69
X73.0Y-98.31
X105.085Y-67.118
X105.19Y-72.0
X112.705Y-67.118
X112.81Y-72.0
X121.706Y-43.007
X121.706Y-45.507
X122.923Y-67.516
X122.923Y-75.136
X124.995Y-80.17
X125.463Y-67.516
X125.463Y-75.136
X127.495Y-80.17
X128.003Y-67.516
X128.003Y-75.136
X130.543Y-67.516
X130.543Y-75.136
X130.795Y-80.06
X135.0Y-60.5
X135.0Y-65.5
X136.0Y-43.0
X136.0Y-45.5
X138.415Y-80.06
X146.759Y-118.113
X146.759Y-125.733
X147.59Y-114.767
X150.09Y-114.767
X150.09Y-118.147
X150.09Y-125.767
X155.38Y-132.31
X155.582Y-135.743
X156.19Y-106.5
X156.39Y-48.406
X156.39Y-56.026
X156.47Y-117.967
X156.47Y-125.587
X156.488Y-82.59
X156.488Y-90.21
X156.766Y-109.9
X156.766Y-112.4
X158.8Y-37.98
X158.8Y-45.6
X158.8Y-74.4
X158.8Y-78.0
X158.93Y-48.406
X158.93Y-56.026
X158.95Y-59.3
X159.0Y-61.88
X159.0Y-69.5
X159.01Y-117.967
X159.01Y-125.587
X159.028Y-82.59
X159.028Y-90.21
X160.166Y-109.9
X160.166Y-112.4
X161.45Y-59.3
X161.47Y-48.406
X161.47Y-56.026
X161.55Y-117.967
X161.55Y-125.587
X161.568Y-82.59
X161.568Y-90.21
X162.0Y-37.99
X162.0Y-45.61
X162.5Y-96.0
X163.0Y-132.31
X163.202Y-135.743
X163.81Y-106.5
X164.01Y-48.406
X164.01Y-56.026
X164.09Y-117.967
X164.09Y-125.587
X164.108Y-82.59
X164.108Y-90.21
X166.42Y-74.4
X166.42Y-78.0
X167.29Y-125.76
X167.29Y-128.26
X167.39Y-82.4
X167.5Y-53.5
X167.5Y-56.0
X167.75Y-90.0
X170.12Y-96.0
X170.25Y-90.0
X172.0Y-121.0
X172.0Y-128.62
X172.0Y-133.0
X172.0Y-140.62
X175.01Y-82.4
T2
X73.0Y-83.5
X73.0Y-86.04
T3
X145.0Y-47.0
X145.0Y-61.0
X170.5Y-93.0
X178.0Y-93.0
T4
X50.5Y-103.705
X51.5Y-66.96
X51.5Y-69.5
X53.04Y-103.705
X55.96Y-43.0
X58.5Y-43.0
X60.5Y-86.0
X60.5Y-96.0
X64.46Y-50.132
X64.46Y-55.132
X75.46Y-50.132
X75.46Y-55.132
X96.801Y-72.05
X98.0Y-80.0
X99.341Y-72.05
X103.5Y-48.0
X106.04Y-48.0
X125.406Y-63.872
X127.46Y-85.0
X127.946Y-63.872
X130.0Y-85.0
X134.96Y-69.5
X135.0Y-102.46
X135.0Y-105.0
X137.5Y-69.5
X142.5Y-41.4
X145.04Y-41.4
X156.7Y-97.1
X156.7Y-99.64
X165.46Y-59.5
X168.0Y-59.5
X170.325Y-78.0
X172.865Y-78.0
T5
X79.46Y-72.05
X82.0Y-72.05
X84.54Y-72.05
X95.0Y-47.96
X95.0Y-50.5
X95.0Y-53.04
X126.366Y-42.857
X128.906Y-42.857
X131.446Y-42.857
T6
X50.468Y-90.25
X50.468Y-95.25
X51.46Y-49.5
X51.46Y-54.5
T7
X91.0Y-98.76
X91.0Y-103.84
X91.0Y-108.92
X91.0Y-114.0
X91.0Y-119.08
X91.0Y-124.16
X116.4Y-98.76
X116.4Y-103.84
X116.4Y-108.92
X116.4Y-114.0
X116.4Y-119.08
X116.4Y-124.16
T8
X78.65Y-80.0
X88.0Y-48.65
X88.0Y-61.35
X91.35Y-80.0
X145.0Y-67.15
X145.0Y-79.85
M30
