%TF.GenerationSoftware,KiCad,Pcbnew,10.0.0*%
%TF.CreationDate,2026-06-24T08:29:39-03:00*%
%TF.ProjectId,switching_v3,73776974-6368-4696-9e67-5f76332e6b69,rev?*%
%TF.SameCoordinates,Original*%
%TF.FileFunction,Soldermask,Top*%
%TF.FilePolarity,Negative*%
%FSLAX46Y46*%
G04 Gerber Fmt 4.6, Leading zero omitted, Abs format (unit mm)*
G04 Created by KiCad (PCBNEW 10.0.0) date 2026-06-24 08:29:39*
%MOMM*%
%LPD*%
G01*
G04 APERTURE LIST*
G04 Aperture macros list*
%AMRoundRect*
0 Rectangle with rounded corners*
0 $1 Rounding radius*
0 $2 $3 $4 $5 $6 $7 $8 $9 X,Y pos of 4 corners*
0 Add a 4 corners polygon primitive as box body*
4,1,4,$2,$3,$4,$5,$6,$7,$8,$9,$2,$3,0*
0 Add four circle primitives for the rounded corners*
1,1,$1+$1,$2,$3*
1,1,$1+$1,$4,$5*
1,1,$1+$1,$6,$7*
1,1,$1+$1,$8,$9*
0 Add four rect primitives between the rounded corners*
20,1,$1+$1,$2,$3,$4,$5,0*
20,1,$1+$1,$4,$5,$6,$7,0*
20,1,$1+$1,$6,$7,$8,$9,0*
20,1,$1+$1,$8,$9,$2,$3,0*%
G04 Aperture macros list end*
%ADD10RoundRect,0.250000X-0.750000X0.750000X-0.750000X-0.750000X0.750000X-0.750000X0.750000X0.750000X0*%
%ADD11C,2.000000*%
%ADD12C,1.600000*%
%ADD13R,1.905000X2.000000*%
%ADD14O,1.905000X2.000000*%
%ADD15R,1.700000X1.700000*%
%ADD16C,1.700000*%
%ADD17RoundRect,0.250000X-0.550000X0.950000X-0.550000X-0.950000X0.550000X-0.950000X0.550000X0.950000X0*%
%ADD18O,1.600000X2.400000*%
%ADD19R,1.800000X1.800000*%
%ADD20C,1.800000*%
%ADD21R,2.000000X1.905000*%
%ADD22O,2.000000X1.905000*%
%ADD23RoundRect,0.250001X1.149999X-1.149999X1.149999X1.149999X-1.149999X1.149999X-1.149999X-1.149999X0*%
%ADD24C,2.800000*%
%ADD25RoundRect,0.250000X-1.350000X1.350000X-1.350000X-1.350000X1.350000X-1.350000X1.350000X1.350000X0*%
%ADD26C,3.200000*%
%ADD27RoundRect,0.250000X1.350000X1.350000X-1.350000X1.350000X-1.350000X-1.350000X1.350000X-1.350000X0*%
%ADD28RoundRect,0.250000X1.350000X-1.350000X1.350000X1.350000X-1.350000X1.350000X-1.350000X-1.350000X0*%
%ADD29RoundRect,0.250000X0.550000X-0.550000X0.550000X0.550000X-0.550000X0.550000X-0.550000X-0.550000X0*%
%ADD30C,3.000000*%
G04 APERTURE END LIST*
D10*
%TO.C,C3*%
X64460000Y-50132323D03*
D11*
X64460000Y-55132323D03*
%TD*%
D12*
%TO.C,Rc1*%
X150089702Y-118146768D03*
X150089702Y-125766768D03*
%TD*%
D13*
%TO.C,Q2*%
X84540000Y-72050000D03*
D14*
X82000000Y-72050000D03*
X79460000Y-72050000D03*
%TD*%
D15*
%TO.C,JP5*%
X127945921Y-63871680D03*
D16*
X125405921Y-63871680D03*
%TD*%
D12*
%TO.C,R2*%
X162000000Y-45610000D03*
X162000000Y-37990000D03*
%TD*%
%TO.C,Rf1*%
X158800000Y-78000000D03*
X166420000Y-78000000D03*
%TD*%
%TO.C,Cc2*%
X150089702Y-114766768D03*
X147589702Y-114766768D03*
%TD*%
D15*
%TO.C,JP8*%
X106040000Y-48000000D03*
D16*
X103500000Y-48000000D03*
%TD*%
D15*
%TO.C,J8*%
X127460000Y-85000000D03*
D16*
X130000000Y-85000000D03*
%TD*%
D12*
%TO.C,C14*%
X167289702Y-125760475D03*
X167289702Y-128260475D03*
%TD*%
%TO.C,R1*%
X158800000Y-37980000D03*
X158800000Y-45600000D03*
%TD*%
D17*
%TO.C,U4*%
X164010000Y-48405962D03*
D18*
X161470000Y-48405962D03*
X158930000Y-48405962D03*
X156390000Y-48405962D03*
X156390000Y-56025962D03*
X158930000Y-56025962D03*
X161470000Y-56025962D03*
X164010000Y-56025962D03*
%TD*%
D11*
%TO.C,C6*%
X60500000Y-96000000D03*
X60500000Y-86000000D03*
%TD*%
D12*
%TO.C,Rc2*%
X163810000Y-106500000D03*
X156190000Y-106500000D03*
%TD*%
D15*
%TO.C,J6*%
X170325000Y-78000000D03*
D16*
X172865000Y-78000000D03*
%TD*%
D12*
%TO.C,Rf2*%
X158800000Y-74400000D03*
X166420000Y-74400000D03*
%TD*%
%TO.C,Cc3*%
X160166289Y-109900000D03*
X160166289Y-112400000D03*
%TD*%
D15*
%TO.C,J2*%
X55960000Y-43000000D03*
D16*
X58500000Y-43000000D03*
%TD*%
D17*
%TO.C,U2*%
X164108308Y-82590000D03*
D18*
X161568308Y-82590000D03*
X159028308Y-82590000D03*
X156488308Y-82590000D03*
X156488308Y-90210000D03*
X159028308Y-90210000D03*
X161568308Y-90210000D03*
X164108308Y-90210000D03*
%TD*%
D12*
%TO.C,C7*%
X167750000Y-90000000D03*
X170250000Y-90000000D03*
%TD*%
%TO.C,C10*%
X127495000Y-80170000D03*
X124995000Y-80170000D03*
%TD*%
%TO.C,R9*%
X162500000Y-96000000D03*
X170120000Y-96000000D03*
%TD*%
%TO.C,C2*%
X121706385Y-43006506D03*
X121706385Y-45506506D03*
%TD*%
%TO.C,C1*%
X136000000Y-43000000D03*
X136000000Y-45500000D03*
%TD*%
%TO.C,R12*%
X155380000Y-132309530D03*
X163000000Y-132309530D03*
%TD*%
D19*
%TO.C,D3*%
X73000000Y-83500000D03*
D20*
X73000000Y-86040000D03*
%TD*%
D12*
%TO.C,R8*%
X112704514Y-67118044D03*
X105084514Y-67118044D03*
%TD*%
D10*
%TO.C,C15*%
X75460000Y-50132323D03*
D11*
X75460000Y-55132323D03*
%TD*%
D13*
%TO.C,U1*%
X126366385Y-42856506D03*
D14*
X128906385Y-42856506D03*
X131446385Y-42856506D03*
%TD*%
D12*
%TO.C,C8*%
X167500000Y-56000000D03*
X167500000Y-53500000D03*
%TD*%
%TO.C,Rc3*%
X146758872Y-118113229D03*
X146758872Y-125733229D03*
%TD*%
D15*
%TO.C,JP7*%
X156700000Y-97100000D03*
D16*
X156700000Y-99640000D03*
%TD*%
D15*
%TO.C,J7*%
X168000000Y-59500000D03*
D16*
X165460000Y-59500000D03*
%TD*%
D12*
%TO.C,R6*%
X167390000Y-82400000D03*
X175010000Y-82400000D03*
%TD*%
D21*
%TO.C,Q1*%
X95000000Y-47960000D03*
D22*
X95000000Y-50500000D03*
X95000000Y-53040000D03*
%TD*%
D15*
%TO.C,JP6*%
X137500000Y-69500000D03*
D16*
X134960000Y-69500000D03*
%TD*%
D12*
%TO.C,C5*%
X161450000Y-59300000D03*
X158950000Y-59300000D03*
%TD*%
%TO.C,R11*%
X172000000Y-121000000D03*
X172000000Y-128620000D03*
%TD*%
%TO.C,Cc1*%
X156766289Y-109900000D03*
X156766289Y-112400000D03*
%TD*%
D23*
%TO.C,J1*%
X51460000Y-54500000D03*
D24*
X51460000Y-49500000D03*
%TD*%
D25*
%TO.C,D1*%
X88000000Y-48650000D03*
D26*
X88000000Y-61350000D03*
%TD*%
D15*
%TO.C,J5*%
X135000000Y-102460000D03*
D16*
X135000000Y-105000000D03*
%TD*%
D12*
%TO.C,R15*%
X172000000Y-133000000D03*
X172000000Y-140620000D03*
%TD*%
%TO.C,R3*%
X73000000Y-98310000D03*
X73000000Y-90690000D03*
%TD*%
%TO.C,C9*%
X135000000Y-60500000D03*
X135000000Y-65500000D03*
%TD*%
D17*
%TO.C,U6*%
X164089702Y-117966768D03*
D18*
X161549702Y-117966768D03*
X159009702Y-117966768D03*
X156469702Y-117966768D03*
X156469702Y-125586768D03*
X159009702Y-125586768D03*
X161549702Y-125586768D03*
X164089702Y-125586768D03*
%TD*%
D15*
%TO.C,JP4*%
X142500000Y-41400000D03*
D16*
X145040000Y-41400000D03*
%TD*%
D27*
%TO.C,D2*%
X91350000Y-80000000D03*
D26*
X78650000Y-80000000D03*
%TD*%
D15*
%TO.C,J4*%
X51500000Y-66960000D03*
D16*
X51500000Y-69500000D03*
%TD*%
D12*
%TO.C,R10*%
X138415000Y-80060000D03*
X130795000Y-80060000D03*
%TD*%
%TO.C,R4*%
X163202059Y-135743096D03*
X155582059Y-135743096D03*
%TD*%
D15*
%TO.C,TP5*%
X98000000Y-80000000D03*
%TD*%
D17*
%TO.C,U3*%
X130543442Y-67515621D03*
D18*
X128003442Y-67515621D03*
X125463442Y-67515621D03*
X122923442Y-67515621D03*
X122923442Y-75135621D03*
X125463442Y-75135621D03*
X128003442Y-75135621D03*
X130543442Y-75135621D03*
%TD*%
D12*
%TO.C,R5*%
X159000000Y-69500000D03*
X159000000Y-61880000D03*
%TD*%
D15*
%TO.C,J9*%
X50500000Y-103705000D03*
D16*
X53040000Y-103705000D03*
%TD*%
D28*
%TO.C,D4*%
X145000000Y-79850000D03*
D26*
X145000000Y-67150000D03*
%TD*%
D29*
%TO.C,C4*%
X66500000Y-93000000D03*
D12*
X66500000Y-90500000D03*
%TD*%
D30*
%TO.C,L1*%
X91000000Y-124160000D03*
X116400000Y-119080000D03*
X91000000Y-114000000D03*
X91000000Y-108920000D03*
X116400000Y-108920000D03*
X91000000Y-103840000D03*
X116400000Y-103840000D03*
X116400000Y-98760000D03*
X91000000Y-98760000D03*
X91000000Y-119080000D03*
X116400000Y-114000000D03*
X116400000Y-124160000D03*
%TD*%
D12*
%TO.C,R7*%
X112810000Y-72000000D03*
X105190000Y-72000000D03*
%TD*%
D15*
%TO.C,JP9*%
X99341230Y-72050224D03*
D16*
X96801230Y-72050224D03*
%TD*%
D23*
%TO.C,J3*%
X50467500Y-95250000D03*
D24*
X50467500Y-90250000D03*
%TD*%
M02*
