%TF.GenerationSoftware,KiCad,Pcbnew,10.0.0*%
%TF.CreationDate,2026-06-22T17:34:30-03:00*%
%TF.ProjectId,switching_v3,73776974-6368-4696-9e67-5f76332e6b69,rev?*%
%TF.SameCoordinates,Original*%
%TF.FileFunction,Legend,Top*%
%TF.FilePolarity,Positive*%
%FSLAX46Y46*%
G04 Gerber Fmt 4.6, Leading zero omitted, Abs format (unit mm)*
G04 Created by KiCad (PCBNEW 10.0.0) date 2026-06-22 17:34:30*
%MOMM*%
%LPD*%
G01*
G04 APERTURE LIST*
%ADD10C,0.150000*%
%ADD11C,0.120000*%
G04 APERTURE END LIST*
D10*
X137859580Y-63166666D02*
X137907200Y-63214285D01*
X137907200Y-63214285D02*
X137954819Y-63357142D01*
X137954819Y-63357142D02*
X137954819Y-63452380D01*
X137954819Y-63452380D02*
X137907200Y-63595237D01*
X137907200Y-63595237D02*
X137811961Y-63690475D01*
X137811961Y-63690475D02*
X137716723Y-63738094D01*
X137716723Y-63738094D02*
X137526247Y-63785713D01*
X137526247Y-63785713D02*
X137383390Y-63785713D01*
X137383390Y-63785713D02*
X137192914Y-63738094D01*
X137192914Y-63738094D02*
X137097676Y-63690475D01*
X137097676Y-63690475D02*
X137002438Y-63595237D01*
X137002438Y-63595237D02*
X136954819Y-63452380D01*
X136954819Y-63452380D02*
X136954819Y-63357142D01*
X136954819Y-63357142D02*
X137002438Y-63214285D01*
X137002438Y-63214285D02*
X137050057Y-63166666D01*
X137954819Y-62690475D02*
X137954819Y-62499999D01*
X137954819Y-62499999D02*
X137907200Y-62404761D01*
X137907200Y-62404761D02*
X137859580Y-62357142D01*
X137859580Y-62357142D02*
X137716723Y-62261904D01*
X137716723Y-62261904D02*
X137526247Y-62214285D01*
X137526247Y-62214285D02*
X137145295Y-62214285D01*
X137145295Y-62214285D02*
X137050057Y-62261904D01*
X137050057Y-62261904D02*
X137002438Y-62309523D01*
X137002438Y-62309523D02*
X136954819Y-62404761D01*
X136954819Y-62404761D02*
X136954819Y-62595237D01*
X136954819Y-62595237D02*
X137002438Y-62690475D01*
X137002438Y-62690475D02*
X137050057Y-62738094D01*
X137050057Y-62738094D02*
X137145295Y-62785713D01*
X137145295Y-62785713D02*
X137383390Y-62785713D01*
X137383390Y-62785713D02*
X137478628Y-62738094D01*
X137478628Y-62738094D02*
X137526247Y-62690475D01*
X137526247Y-62690475D02*
X137573866Y-62595237D01*
X137573866Y-62595237D02*
X137573866Y-62404761D01*
X137573866Y-62404761D02*
X137526247Y-62309523D01*
X137526247Y-62309523D02*
X137478628Y-62261904D01*
X137478628Y-62261904D02*
X137383390Y-62214285D01*
X108727847Y-69942863D02*
X108394514Y-69466672D01*
X108156419Y-69942863D02*
X108156419Y-68942863D01*
X108156419Y-68942863D02*
X108537371Y-68942863D01*
X108537371Y-68942863D02*
X108632609Y-68990482D01*
X108632609Y-68990482D02*
X108680228Y-69038101D01*
X108680228Y-69038101D02*
X108727847Y-69133339D01*
X108727847Y-69133339D02*
X108727847Y-69276196D01*
X108727847Y-69276196D02*
X108680228Y-69371434D01*
X108680228Y-69371434D02*
X108632609Y-69419053D01*
X108632609Y-69419053D02*
X108537371Y-69466672D01*
X108537371Y-69466672D02*
X108156419Y-69466672D01*
X109299276Y-69371434D02*
X109204038Y-69323815D01*
X109204038Y-69323815D02*
X109156419Y-69276196D01*
X109156419Y-69276196D02*
X109108800Y-69180958D01*
X109108800Y-69180958D02*
X109108800Y-69133339D01*
X109108800Y-69133339D02*
X109156419Y-69038101D01*
X109156419Y-69038101D02*
X109204038Y-68990482D01*
X109204038Y-68990482D02*
X109299276Y-68942863D01*
X109299276Y-68942863D02*
X109489752Y-68942863D01*
X109489752Y-68942863D02*
X109584990Y-68990482D01*
X109584990Y-68990482D02*
X109632609Y-69038101D01*
X109632609Y-69038101D02*
X109680228Y-69133339D01*
X109680228Y-69133339D02*
X109680228Y-69180958D01*
X109680228Y-69180958D02*
X109632609Y-69276196D01*
X109632609Y-69276196D02*
X109584990Y-69323815D01*
X109584990Y-69323815D02*
X109489752Y-69371434D01*
X109489752Y-69371434D02*
X109299276Y-69371434D01*
X109299276Y-69371434D02*
X109204038Y-69419053D01*
X109204038Y-69419053D02*
X109156419Y-69466672D01*
X109156419Y-69466672D02*
X109108800Y-69561910D01*
X109108800Y-69561910D02*
X109108800Y-69752386D01*
X109108800Y-69752386D02*
X109156419Y-69847624D01*
X109156419Y-69847624D02*
X109204038Y-69895244D01*
X109204038Y-69895244D02*
X109299276Y-69942863D01*
X109299276Y-69942863D02*
X109489752Y-69942863D01*
X109489752Y-69942863D02*
X109584990Y-69895244D01*
X109584990Y-69895244D02*
X109632609Y-69847624D01*
X109632609Y-69847624D02*
X109680228Y-69752386D01*
X109680228Y-69752386D02*
X109680228Y-69561910D01*
X109680228Y-69561910D02*
X109632609Y-69466672D01*
X109632609Y-69466672D02*
X109584990Y-69419053D01*
X109584990Y-69419053D02*
X109489752Y-69371434D01*
X108833333Y-74824819D02*
X108500000Y-74348628D01*
X108261905Y-74824819D02*
X108261905Y-73824819D01*
X108261905Y-73824819D02*
X108642857Y-73824819D01*
X108642857Y-73824819D02*
X108738095Y-73872438D01*
X108738095Y-73872438D02*
X108785714Y-73920057D01*
X108785714Y-73920057D02*
X108833333Y-74015295D01*
X108833333Y-74015295D02*
X108833333Y-74158152D01*
X108833333Y-74158152D02*
X108785714Y-74253390D01*
X108785714Y-74253390D02*
X108738095Y-74301009D01*
X108738095Y-74301009D02*
X108642857Y-74348628D01*
X108642857Y-74348628D02*
X108261905Y-74348628D01*
X109166667Y-73824819D02*
X109833333Y-73824819D01*
X109833333Y-73824819D02*
X109404762Y-74824819D01*
X125602142Y-83029580D02*
X125554523Y-83077200D01*
X125554523Y-83077200D02*
X125411666Y-83124819D01*
X125411666Y-83124819D02*
X125316428Y-83124819D01*
X125316428Y-83124819D02*
X125173571Y-83077200D01*
X125173571Y-83077200D02*
X125078333Y-82981961D01*
X125078333Y-82981961D02*
X125030714Y-82886723D01*
X125030714Y-82886723D02*
X124983095Y-82696247D01*
X124983095Y-82696247D02*
X124983095Y-82553390D01*
X124983095Y-82553390D02*
X125030714Y-82362914D01*
X125030714Y-82362914D02*
X125078333Y-82267676D01*
X125078333Y-82267676D02*
X125173571Y-82172438D01*
X125173571Y-82172438D02*
X125316428Y-82124819D01*
X125316428Y-82124819D02*
X125411666Y-82124819D01*
X125411666Y-82124819D02*
X125554523Y-82172438D01*
X125554523Y-82172438D02*
X125602142Y-82220057D01*
X126554523Y-83124819D02*
X125983095Y-83124819D01*
X126268809Y-83124819D02*
X126268809Y-82124819D01*
X126268809Y-82124819D02*
X126173571Y-82267676D01*
X126173571Y-82267676D02*
X126078333Y-82362914D01*
X126078333Y-82362914D02*
X125983095Y-82410533D01*
X127173571Y-82124819D02*
X127268809Y-82124819D01*
X127268809Y-82124819D02*
X127364047Y-82172438D01*
X127364047Y-82172438D02*
X127411666Y-82220057D01*
X127411666Y-82220057D02*
X127459285Y-82315295D01*
X127459285Y-82315295D02*
X127506904Y-82505771D01*
X127506904Y-82505771D02*
X127506904Y-82743866D01*
X127506904Y-82743866D02*
X127459285Y-82934342D01*
X127459285Y-82934342D02*
X127411666Y-83029580D01*
X127411666Y-83029580D02*
X127364047Y-83077200D01*
X127364047Y-83077200D02*
X127268809Y-83124819D01*
X127268809Y-83124819D02*
X127173571Y-83124819D01*
X127173571Y-83124819D02*
X127078333Y-83077200D01*
X127078333Y-83077200D02*
X127030714Y-83029580D01*
X127030714Y-83029580D02*
X126983095Y-82934342D01*
X126983095Y-82934342D02*
X126935476Y-82743866D01*
X126935476Y-82743866D02*
X126935476Y-82505771D01*
X126935476Y-82505771D02*
X126983095Y-82315295D01*
X126983095Y-82315295D02*
X127030714Y-82220057D01*
X127030714Y-82220057D02*
X127078333Y-82172438D01*
X127078333Y-82172438D02*
X127173571Y-82124819D01*
X142854819Y-80111904D02*
X141854819Y-80111904D01*
X142854819Y-79540476D02*
X142283390Y-79969047D01*
X141854819Y-79540476D02*
X142426247Y-80111904D01*
X124534819Y-85333333D02*
X125249104Y-85333333D01*
X125249104Y-85333333D02*
X125391961Y-85380952D01*
X125391961Y-85380952D02*
X125487200Y-85476190D01*
X125487200Y-85476190D02*
X125534819Y-85619047D01*
X125534819Y-85619047D02*
X125534819Y-85714285D01*
X124963390Y-84714285D02*
X124915771Y-84809523D01*
X124915771Y-84809523D02*
X124868152Y-84857142D01*
X124868152Y-84857142D02*
X124772914Y-84904761D01*
X124772914Y-84904761D02*
X124725295Y-84904761D01*
X124725295Y-84904761D02*
X124630057Y-84857142D01*
X124630057Y-84857142D02*
X124582438Y-84809523D01*
X124582438Y-84809523D02*
X124534819Y-84714285D01*
X124534819Y-84714285D02*
X124534819Y-84523809D01*
X124534819Y-84523809D02*
X124582438Y-84428571D01*
X124582438Y-84428571D02*
X124630057Y-84380952D01*
X124630057Y-84380952D02*
X124725295Y-84333333D01*
X124725295Y-84333333D02*
X124772914Y-84333333D01*
X124772914Y-84333333D02*
X124868152Y-84380952D01*
X124868152Y-84380952D02*
X124915771Y-84428571D01*
X124915771Y-84428571D02*
X124963390Y-84523809D01*
X124963390Y-84523809D02*
X124963390Y-84714285D01*
X124963390Y-84714285D02*
X125011009Y-84809523D01*
X125011009Y-84809523D02*
X125058628Y-84857142D01*
X125058628Y-84857142D02*
X125153866Y-84904761D01*
X125153866Y-84904761D02*
X125344342Y-84904761D01*
X125344342Y-84904761D02*
X125439580Y-84857142D01*
X125439580Y-84857142D02*
X125487200Y-84809523D01*
X125487200Y-84809523D02*
X125534819Y-84714285D01*
X125534819Y-84714285D02*
X125534819Y-84523809D01*
X125534819Y-84523809D02*
X125487200Y-84428571D01*
X125487200Y-84428571D02*
X125439580Y-84380952D01*
X125439580Y-84380952D02*
X125344342Y-84333333D01*
X125344342Y-84333333D02*
X125153866Y-84333333D01*
X125153866Y-84333333D02*
X125058628Y-84380952D01*
X125058628Y-84380952D02*
X125011009Y-84428571D01*
X125011009Y-84428571D02*
X124963390Y-84523809D01*
X83954819Y-111496666D02*
X83954819Y-111972856D01*
X83954819Y-111972856D02*
X82954819Y-111972856D01*
X83954819Y-110639523D02*
X83954819Y-111210951D01*
X83954819Y-110925237D02*
X82954819Y-110925237D01*
X82954819Y-110925237D02*
X83097676Y-111020475D01*
X83097676Y-111020475D02*
X83192914Y-111115713D01*
X83192914Y-111115713D02*
X83240533Y-111210951D01*
X133962142Y-82884819D02*
X133628809Y-82408628D01*
X133390714Y-82884819D02*
X133390714Y-81884819D01*
X133390714Y-81884819D02*
X133771666Y-81884819D01*
X133771666Y-81884819D02*
X133866904Y-81932438D01*
X133866904Y-81932438D02*
X133914523Y-81980057D01*
X133914523Y-81980057D02*
X133962142Y-82075295D01*
X133962142Y-82075295D02*
X133962142Y-82218152D01*
X133962142Y-82218152D02*
X133914523Y-82313390D01*
X133914523Y-82313390D02*
X133866904Y-82361009D01*
X133866904Y-82361009D02*
X133771666Y-82408628D01*
X133771666Y-82408628D02*
X133390714Y-82408628D01*
X134914523Y-82884819D02*
X134343095Y-82884819D01*
X134628809Y-82884819D02*
X134628809Y-81884819D01*
X134628809Y-81884819D02*
X134533571Y-82027676D01*
X134533571Y-82027676D02*
X134438333Y-82122914D01*
X134438333Y-82122914D02*
X134343095Y-82170533D01*
X135533571Y-81884819D02*
X135628809Y-81884819D01*
X135628809Y-81884819D02*
X135724047Y-81932438D01*
X135724047Y-81932438D02*
X135771666Y-81980057D01*
X135771666Y-81980057D02*
X135819285Y-82075295D01*
X135819285Y-82075295D02*
X135866904Y-82265771D01*
X135866904Y-82265771D02*
X135866904Y-82503866D01*
X135866904Y-82503866D02*
X135819285Y-82694342D01*
X135819285Y-82694342D02*
X135771666Y-82789580D01*
X135771666Y-82789580D02*
X135724047Y-82837200D01*
X135724047Y-82837200D02*
X135628809Y-82884819D01*
X135628809Y-82884819D02*
X135533571Y-82884819D01*
X135533571Y-82884819D02*
X135438333Y-82837200D01*
X135438333Y-82837200D02*
X135390714Y-82789580D01*
X135390714Y-82789580D02*
X135343095Y-82694342D01*
X135343095Y-82694342D02*
X135295476Y-82503866D01*
X135295476Y-82503866D02*
X135295476Y-82265771D01*
X135295476Y-82265771D02*
X135343095Y-82075295D01*
X135343095Y-82075295D02*
X135390714Y-81980057D01*
X135390714Y-81980057D02*
X135438333Y-81932438D01*
X135438333Y-81932438D02*
X135533571Y-81884819D01*
X132328261Y-72087525D02*
X133137784Y-72087525D01*
X133137784Y-72087525D02*
X133233022Y-72039906D01*
X133233022Y-72039906D02*
X133280642Y-71992287D01*
X133280642Y-71992287D02*
X133328261Y-71897049D01*
X133328261Y-71897049D02*
X133328261Y-71706573D01*
X133328261Y-71706573D02*
X133280642Y-71611335D01*
X133280642Y-71611335D02*
X133233022Y-71563716D01*
X133233022Y-71563716D02*
X133137784Y-71516097D01*
X133137784Y-71516097D02*
X132328261Y-71516097D01*
X132328261Y-71135144D02*
X132328261Y-70516097D01*
X132328261Y-70516097D02*
X132709213Y-70849430D01*
X132709213Y-70849430D02*
X132709213Y-70706573D01*
X132709213Y-70706573D02*
X132756832Y-70611335D01*
X132756832Y-70611335D02*
X132804451Y-70563716D01*
X132804451Y-70563716D02*
X132899689Y-70516097D01*
X132899689Y-70516097D02*
X133137784Y-70516097D01*
X133137784Y-70516097D02*
X133233022Y-70563716D01*
X133233022Y-70563716D02*
X133280642Y-70611335D01*
X133280642Y-70611335D02*
X133328261Y-70706573D01*
X133328261Y-70706573D02*
X133328261Y-70992287D01*
X133328261Y-70992287D02*
X133280642Y-71087525D01*
X133280642Y-71087525D02*
X133233022Y-71135144D01*
X152914521Y-122552006D02*
X152438330Y-122885339D01*
X152914521Y-123123434D02*
X151914521Y-123123434D01*
X151914521Y-123123434D02*
X151914521Y-122742482D01*
X151914521Y-122742482D02*
X151962140Y-122647244D01*
X151962140Y-122647244D02*
X152009759Y-122599625D01*
X152009759Y-122599625D02*
X152104997Y-122552006D01*
X152104997Y-122552006D02*
X152247854Y-122552006D01*
X152247854Y-122552006D02*
X152343092Y-122599625D01*
X152343092Y-122599625D02*
X152390711Y-122647244D01*
X152390711Y-122647244D02*
X152438330Y-122742482D01*
X152438330Y-122742482D02*
X152438330Y-123123434D01*
X152866902Y-121694863D02*
X152914521Y-121790101D01*
X152914521Y-121790101D02*
X152914521Y-121980577D01*
X152914521Y-121980577D02*
X152866902Y-122075815D01*
X152866902Y-122075815D02*
X152819282Y-122123434D01*
X152819282Y-122123434D02*
X152724044Y-122171053D01*
X152724044Y-122171053D02*
X152438330Y-122171053D01*
X152438330Y-122171053D02*
X152343092Y-122123434D01*
X152343092Y-122123434D02*
X152295473Y-122075815D01*
X152295473Y-122075815D02*
X152247854Y-121980577D01*
X152247854Y-121980577D02*
X152247854Y-121790101D01*
X152247854Y-121790101D02*
X152295473Y-121694863D01*
X152914521Y-120742482D02*
X152914521Y-121313910D01*
X152914521Y-121028196D02*
X151914521Y-121028196D01*
X151914521Y-121028196D02*
X152057378Y-121123434D01*
X152057378Y-121123434D02*
X152152616Y-121218672D01*
X152152616Y-121218672D02*
X152200235Y-121313910D01*
X81904761Y-76700057D02*
X81809523Y-76652438D01*
X81809523Y-76652438D02*
X81714285Y-76557200D01*
X81714285Y-76557200D02*
X81571428Y-76414342D01*
X81571428Y-76414342D02*
X81476190Y-76366723D01*
X81476190Y-76366723D02*
X81380952Y-76366723D01*
X81428571Y-76604819D02*
X81333333Y-76557200D01*
X81333333Y-76557200D02*
X81238095Y-76461961D01*
X81238095Y-76461961D02*
X81190476Y-76271485D01*
X81190476Y-76271485D02*
X81190476Y-75938152D01*
X81190476Y-75938152D02*
X81238095Y-75747676D01*
X81238095Y-75747676D02*
X81333333Y-75652438D01*
X81333333Y-75652438D02*
X81428571Y-75604819D01*
X81428571Y-75604819D02*
X81619047Y-75604819D01*
X81619047Y-75604819D02*
X81714285Y-75652438D01*
X81714285Y-75652438D02*
X81809523Y-75747676D01*
X81809523Y-75747676D02*
X81857142Y-75938152D01*
X81857142Y-75938152D02*
X81857142Y-76271485D01*
X81857142Y-76271485D02*
X81809523Y-76461961D01*
X81809523Y-76461961D02*
X81714285Y-76557200D01*
X81714285Y-76557200D02*
X81619047Y-76604819D01*
X81619047Y-76604819D02*
X81428571Y-76604819D01*
X82238095Y-75700057D02*
X82285714Y-75652438D01*
X82285714Y-75652438D02*
X82380952Y-75604819D01*
X82380952Y-75604819D02*
X82619047Y-75604819D01*
X82619047Y-75604819D02*
X82714285Y-75652438D01*
X82714285Y-75652438D02*
X82761904Y-75700057D01*
X82761904Y-75700057D02*
X82809523Y-75795295D01*
X82809523Y-75795295D02*
X82809523Y-75890533D01*
X82809523Y-75890533D02*
X82761904Y-76033390D01*
X82761904Y-76033390D02*
X82190476Y-76604819D01*
X82190476Y-76604819D02*
X82809523Y-76604819D01*
X129780740Y-64705013D02*
X130495025Y-64705013D01*
X130495025Y-64705013D02*
X130637882Y-64752632D01*
X130637882Y-64752632D02*
X130733121Y-64847870D01*
X130733121Y-64847870D02*
X130780740Y-64990727D01*
X130780740Y-64990727D02*
X130780740Y-65085965D01*
X130780740Y-64228822D02*
X129780740Y-64228822D01*
X129780740Y-64228822D02*
X129780740Y-63847870D01*
X129780740Y-63847870D02*
X129828359Y-63752632D01*
X129828359Y-63752632D02*
X129875978Y-63705013D01*
X129875978Y-63705013D02*
X129971216Y-63657394D01*
X129971216Y-63657394D02*
X130114073Y-63657394D01*
X130114073Y-63657394D02*
X130209311Y-63705013D01*
X130209311Y-63705013D02*
X130256930Y-63752632D01*
X130256930Y-63752632D02*
X130304549Y-63847870D01*
X130304549Y-63847870D02*
X130304549Y-64228822D01*
X129780740Y-62752632D02*
X129780740Y-63228822D01*
X129780740Y-63228822D02*
X130256930Y-63276441D01*
X130256930Y-63276441D02*
X130209311Y-63228822D01*
X130209311Y-63228822D02*
X130161692Y-63133584D01*
X130161692Y-63133584D02*
X130161692Y-62895489D01*
X130161692Y-62895489D02*
X130209311Y-62800251D01*
X130209311Y-62800251D02*
X130256930Y-62752632D01*
X130256930Y-62752632D02*
X130352168Y-62705013D01*
X130352168Y-62705013D02*
X130590263Y-62705013D01*
X130590263Y-62705013D02*
X130685501Y-62752632D01*
X130685501Y-62752632D02*
X130733121Y-62800251D01*
X130733121Y-62800251D02*
X130780740Y-62895489D01*
X130780740Y-62895489D02*
X130780740Y-63133584D01*
X130780740Y-63133584D02*
X130733121Y-63228822D01*
X130733121Y-63228822D02*
X130685501Y-63276441D01*
X107874819Y-48833333D02*
X108589104Y-48833333D01*
X108589104Y-48833333D02*
X108731961Y-48880952D01*
X108731961Y-48880952D02*
X108827200Y-48976190D01*
X108827200Y-48976190D02*
X108874819Y-49119047D01*
X108874819Y-49119047D02*
X108874819Y-49214285D01*
X108874819Y-48357142D02*
X107874819Y-48357142D01*
X107874819Y-48357142D02*
X107874819Y-47976190D01*
X107874819Y-47976190D02*
X107922438Y-47880952D01*
X107922438Y-47880952D02*
X107970057Y-47833333D01*
X107970057Y-47833333D02*
X108065295Y-47785714D01*
X108065295Y-47785714D02*
X108208152Y-47785714D01*
X108208152Y-47785714D02*
X108303390Y-47833333D01*
X108303390Y-47833333D02*
X108351009Y-47880952D01*
X108351009Y-47880952D02*
X108398628Y-47976190D01*
X108398628Y-47976190D02*
X108398628Y-48357142D01*
X108303390Y-47214285D02*
X108255771Y-47309523D01*
X108255771Y-47309523D02*
X108208152Y-47357142D01*
X108208152Y-47357142D02*
X108112914Y-47404761D01*
X108112914Y-47404761D02*
X108065295Y-47404761D01*
X108065295Y-47404761D02*
X107970057Y-47357142D01*
X107970057Y-47357142D02*
X107922438Y-47309523D01*
X107922438Y-47309523D02*
X107874819Y-47214285D01*
X107874819Y-47214285D02*
X107874819Y-47023809D01*
X107874819Y-47023809D02*
X107922438Y-46928571D01*
X107922438Y-46928571D02*
X107970057Y-46880952D01*
X107970057Y-46880952D02*
X108065295Y-46833333D01*
X108065295Y-46833333D02*
X108112914Y-46833333D01*
X108112914Y-46833333D02*
X108208152Y-46880952D01*
X108208152Y-46880952D02*
X108255771Y-46928571D01*
X108255771Y-46928571D02*
X108303390Y-47023809D01*
X108303390Y-47023809D02*
X108303390Y-47214285D01*
X108303390Y-47214285D02*
X108351009Y-47309523D01*
X108351009Y-47309523D02*
X108398628Y-47357142D01*
X108398628Y-47357142D02*
X108493866Y-47404761D01*
X108493866Y-47404761D02*
X108684342Y-47404761D01*
X108684342Y-47404761D02*
X108779580Y-47357142D01*
X108779580Y-47357142D02*
X108827200Y-47309523D01*
X108827200Y-47309523D02*
X108874819Y-47214285D01*
X108874819Y-47214285D02*
X108874819Y-47023809D01*
X108874819Y-47023809D02*
X108827200Y-46928571D01*
X108827200Y-46928571D02*
X108779580Y-46880952D01*
X108779580Y-46880952D02*
X108684342Y-46833333D01*
X108684342Y-46833333D02*
X108493866Y-46833333D01*
X108493866Y-46833333D02*
X108398628Y-46880952D01*
X108398628Y-46880952D02*
X108351009Y-46928571D01*
X108351009Y-46928571D02*
X108303390Y-47023809D01*
X57109580Y-91166666D02*
X57157200Y-91214285D01*
X57157200Y-91214285D02*
X57204819Y-91357142D01*
X57204819Y-91357142D02*
X57204819Y-91452380D01*
X57204819Y-91452380D02*
X57157200Y-91595237D01*
X57157200Y-91595237D02*
X57061961Y-91690475D01*
X57061961Y-91690475D02*
X56966723Y-91738094D01*
X56966723Y-91738094D02*
X56776247Y-91785713D01*
X56776247Y-91785713D02*
X56633390Y-91785713D01*
X56633390Y-91785713D02*
X56442914Y-91738094D01*
X56442914Y-91738094D02*
X56347676Y-91690475D01*
X56347676Y-91690475D02*
X56252438Y-91595237D01*
X56252438Y-91595237D02*
X56204819Y-91452380D01*
X56204819Y-91452380D02*
X56204819Y-91357142D01*
X56204819Y-91357142D02*
X56252438Y-91214285D01*
X56252438Y-91214285D02*
X56300057Y-91166666D01*
X56204819Y-90309523D02*
X56204819Y-90499999D01*
X56204819Y-90499999D02*
X56252438Y-90595237D01*
X56252438Y-90595237D02*
X56300057Y-90642856D01*
X56300057Y-90642856D02*
X56442914Y-90738094D01*
X56442914Y-90738094D02*
X56633390Y-90785713D01*
X56633390Y-90785713D02*
X57014342Y-90785713D01*
X57014342Y-90785713D02*
X57109580Y-90738094D01*
X57109580Y-90738094D02*
X57157200Y-90690475D01*
X57157200Y-90690475D02*
X57204819Y-90595237D01*
X57204819Y-90595237D02*
X57204819Y-90404761D01*
X57204819Y-90404761D02*
X57157200Y-90309523D01*
X57157200Y-90309523D02*
X57109580Y-90261904D01*
X57109580Y-90261904D02*
X57014342Y-90214285D01*
X57014342Y-90214285D02*
X56776247Y-90214285D01*
X56776247Y-90214285D02*
X56681009Y-90261904D01*
X56681009Y-90261904D02*
X56633390Y-90309523D01*
X56633390Y-90309523D02*
X56585771Y-90404761D01*
X56585771Y-90404761D02*
X56585771Y-90595237D01*
X56585771Y-90595237D02*
X56633390Y-90690475D01*
X56633390Y-90690475D02*
X56681009Y-90738094D01*
X56681009Y-90738094D02*
X56776247Y-90785713D01*
X163025869Y-111745238D02*
X163073489Y-111792857D01*
X163073489Y-111792857D02*
X163121108Y-111935714D01*
X163121108Y-111935714D02*
X163121108Y-112030952D01*
X163121108Y-112030952D02*
X163073489Y-112173809D01*
X163073489Y-112173809D02*
X162978250Y-112269047D01*
X162978250Y-112269047D02*
X162883012Y-112316666D01*
X162883012Y-112316666D02*
X162692536Y-112364285D01*
X162692536Y-112364285D02*
X162549679Y-112364285D01*
X162549679Y-112364285D02*
X162359203Y-112316666D01*
X162359203Y-112316666D02*
X162263965Y-112269047D01*
X162263965Y-112269047D02*
X162168727Y-112173809D01*
X162168727Y-112173809D02*
X162121108Y-112030952D01*
X162121108Y-112030952D02*
X162121108Y-111935714D01*
X162121108Y-111935714D02*
X162168727Y-111792857D01*
X162168727Y-111792857D02*
X162216346Y-111745238D01*
X163073489Y-110888095D02*
X163121108Y-110983333D01*
X163121108Y-110983333D02*
X163121108Y-111173809D01*
X163121108Y-111173809D02*
X163073489Y-111269047D01*
X163073489Y-111269047D02*
X163025869Y-111316666D01*
X163025869Y-111316666D02*
X162930631Y-111364285D01*
X162930631Y-111364285D02*
X162644917Y-111364285D01*
X162644917Y-111364285D02*
X162549679Y-111316666D01*
X162549679Y-111316666D02*
X162502060Y-111269047D01*
X162502060Y-111269047D02*
X162454441Y-111173809D01*
X162454441Y-111173809D02*
X162454441Y-110983333D01*
X162454441Y-110983333D02*
X162502060Y-110888095D01*
X162121108Y-110554761D02*
X162121108Y-109935714D01*
X162121108Y-109935714D02*
X162502060Y-110269047D01*
X162502060Y-110269047D02*
X162502060Y-110126190D01*
X162502060Y-110126190D02*
X162549679Y-110030952D01*
X162549679Y-110030952D02*
X162597298Y-109983333D01*
X162597298Y-109983333D02*
X162692536Y-109935714D01*
X162692536Y-109935714D02*
X162930631Y-109935714D01*
X162930631Y-109935714D02*
X163025869Y-109983333D01*
X163025869Y-109983333D02*
X163073489Y-110030952D01*
X163073489Y-110030952D02*
X163121108Y-110126190D01*
X163121108Y-110126190D02*
X163121108Y-110411904D01*
X163121108Y-110411904D02*
X163073489Y-110507142D01*
X163073489Y-110507142D02*
X163025869Y-110554761D01*
X53034819Y-43333333D02*
X53749104Y-43333333D01*
X53749104Y-43333333D02*
X53891961Y-43380952D01*
X53891961Y-43380952D02*
X53987200Y-43476190D01*
X53987200Y-43476190D02*
X54034819Y-43619047D01*
X54034819Y-43619047D02*
X54034819Y-43714285D01*
X53130057Y-42904761D02*
X53082438Y-42857142D01*
X53082438Y-42857142D02*
X53034819Y-42761904D01*
X53034819Y-42761904D02*
X53034819Y-42523809D01*
X53034819Y-42523809D02*
X53082438Y-42428571D01*
X53082438Y-42428571D02*
X53130057Y-42380952D01*
X53130057Y-42380952D02*
X53225295Y-42333333D01*
X53225295Y-42333333D02*
X53320533Y-42333333D01*
X53320533Y-42333333D02*
X53463390Y-42380952D01*
X53463390Y-42380952D02*
X54034819Y-42952380D01*
X54034819Y-42952380D02*
X54034819Y-42333333D01*
X165893127Y-87161904D02*
X166702650Y-87161904D01*
X166702650Y-87161904D02*
X166797888Y-87114285D01*
X166797888Y-87114285D02*
X166845508Y-87066666D01*
X166845508Y-87066666D02*
X166893127Y-86971428D01*
X166893127Y-86971428D02*
X166893127Y-86780952D01*
X166893127Y-86780952D02*
X166845508Y-86685714D01*
X166845508Y-86685714D02*
X166797888Y-86638095D01*
X166797888Y-86638095D02*
X166702650Y-86590476D01*
X166702650Y-86590476D02*
X165893127Y-86590476D01*
X165988365Y-86161904D02*
X165940746Y-86114285D01*
X165940746Y-86114285D02*
X165893127Y-86019047D01*
X165893127Y-86019047D02*
X165893127Y-85780952D01*
X165893127Y-85780952D02*
X165940746Y-85685714D01*
X165940746Y-85685714D02*
X165988365Y-85638095D01*
X165988365Y-85638095D02*
X166083603Y-85590476D01*
X166083603Y-85590476D02*
X166178841Y-85590476D01*
X166178841Y-85590476D02*
X166321698Y-85638095D01*
X166321698Y-85638095D02*
X166893127Y-86209523D01*
X166893127Y-86209523D02*
X166893127Y-85590476D01*
X158547142Y-130394349D02*
X158213809Y-129918158D01*
X157975714Y-130394349D02*
X157975714Y-129394349D01*
X157975714Y-129394349D02*
X158356666Y-129394349D01*
X158356666Y-129394349D02*
X158451904Y-129441968D01*
X158451904Y-129441968D02*
X158499523Y-129489587D01*
X158499523Y-129489587D02*
X158547142Y-129584825D01*
X158547142Y-129584825D02*
X158547142Y-129727682D01*
X158547142Y-129727682D02*
X158499523Y-129822920D01*
X158499523Y-129822920D02*
X158451904Y-129870539D01*
X158451904Y-129870539D02*
X158356666Y-129918158D01*
X158356666Y-129918158D02*
X157975714Y-129918158D01*
X159499523Y-130394349D02*
X158928095Y-130394349D01*
X159213809Y-130394349D02*
X159213809Y-129394349D01*
X159213809Y-129394349D02*
X159118571Y-129537206D01*
X159118571Y-129537206D02*
X159023333Y-129632444D01*
X159023333Y-129632444D02*
X158928095Y-129680063D01*
X159880476Y-129489587D02*
X159928095Y-129441968D01*
X159928095Y-129441968D02*
X160023333Y-129394349D01*
X160023333Y-129394349D02*
X160261428Y-129394349D01*
X160261428Y-129394349D02*
X160356666Y-129441968D01*
X160356666Y-129441968D02*
X160404285Y-129489587D01*
X160404285Y-129489587D02*
X160451904Y-129584825D01*
X160451904Y-129584825D02*
X160451904Y-129680063D01*
X160451904Y-129680063D02*
X160404285Y-129822920D01*
X160404285Y-129822920D02*
X159832857Y-130394349D01*
X159832857Y-130394349D02*
X160451904Y-130394349D01*
X77414819Y-85508094D02*
X76414819Y-85508094D01*
X76414819Y-85508094D02*
X76414819Y-85269999D01*
X76414819Y-85269999D02*
X76462438Y-85127142D01*
X76462438Y-85127142D02*
X76557676Y-85031904D01*
X76557676Y-85031904D02*
X76652914Y-84984285D01*
X76652914Y-84984285D02*
X76843390Y-84936666D01*
X76843390Y-84936666D02*
X76986247Y-84936666D01*
X76986247Y-84936666D02*
X77176723Y-84984285D01*
X77176723Y-84984285D02*
X77271961Y-85031904D01*
X77271961Y-85031904D02*
X77367200Y-85127142D01*
X77367200Y-85127142D02*
X77414819Y-85269999D01*
X77414819Y-85269999D02*
X77414819Y-85508094D01*
X76414819Y-84603332D02*
X76414819Y-83984285D01*
X76414819Y-83984285D02*
X76795771Y-84317618D01*
X76795771Y-84317618D02*
X76795771Y-84174761D01*
X76795771Y-84174761D02*
X76843390Y-84079523D01*
X76843390Y-84079523D02*
X76891009Y-84031904D01*
X76891009Y-84031904D02*
X76986247Y-83984285D01*
X76986247Y-83984285D02*
X77224342Y-83984285D01*
X77224342Y-83984285D02*
X77319580Y-84031904D01*
X77319580Y-84031904D02*
X77367200Y-84079523D01*
X77367200Y-84079523D02*
X77414819Y-84174761D01*
X77414819Y-84174761D02*
X77414819Y-84460475D01*
X77414819Y-84460475D02*
X77367200Y-84555713D01*
X77367200Y-84555713D02*
X77319580Y-84603332D01*
X82069580Y-53275180D02*
X82117200Y-53322799D01*
X82117200Y-53322799D02*
X82164819Y-53465656D01*
X82164819Y-53465656D02*
X82164819Y-53560894D01*
X82164819Y-53560894D02*
X82117200Y-53703751D01*
X82117200Y-53703751D02*
X82021961Y-53798989D01*
X82021961Y-53798989D02*
X81926723Y-53846608D01*
X81926723Y-53846608D02*
X81736247Y-53894227D01*
X81736247Y-53894227D02*
X81593390Y-53894227D01*
X81593390Y-53894227D02*
X81402914Y-53846608D01*
X81402914Y-53846608D02*
X81307676Y-53798989D01*
X81307676Y-53798989D02*
X81212438Y-53703751D01*
X81212438Y-53703751D02*
X81164819Y-53560894D01*
X81164819Y-53560894D02*
X81164819Y-53465656D01*
X81164819Y-53465656D02*
X81212438Y-53322799D01*
X81212438Y-53322799D02*
X81260057Y-53275180D01*
X82164819Y-52322799D02*
X82164819Y-52894227D01*
X82164819Y-52608513D02*
X81164819Y-52608513D01*
X81164819Y-52608513D02*
X81307676Y-52703751D01*
X81307676Y-52703751D02*
X81402914Y-52798989D01*
X81402914Y-52798989D02*
X81450533Y-52894227D01*
X81164819Y-51418037D02*
X81164819Y-51894227D01*
X81164819Y-51894227D02*
X81641009Y-51941846D01*
X81641009Y-51941846D02*
X81593390Y-51894227D01*
X81593390Y-51894227D02*
X81545771Y-51798989D01*
X81545771Y-51798989D02*
X81545771Y-51560894D01*
X81545771Y-51560894D02*
X81593390Y-51465656D01*
X81593390Y-51465656D02*
X81641009Y-51418037D01*
X81641009Y-51418037D02*
X81736247Y-51370418D01*
X81736247Y-51370418D02*
X81974342Y-51370418D01*
X81974342Y-51370418D02*
X82069580Y-51418037D01*
X82069580Y-51418037D02*
X82117200Y-51465656D01*
X82117200Y-51465656D02*
X82164819Y-51560894D01*
X82164819Y-51560894D02*
X82164819Y-51798989D01*
X82164819Y-51798989D02*
X82117200Y-51894227D01*
X82117200Y-51894227D02*
X82069580Y-51941846D01*
X128144480Y-38211325D02*
X128144480Y-39020848D01*
X128144480Y-39020848D02*
X128192099Y-39116086D01*
X128192099Y-39116086D02*
X128239718Y-39163706D01*
X128239718Y-39163706D02*
X128334956Y-39211325D01*
X128334956Y-39211325D02*
X128525432Y-39211325D01*
X128525432Y-39211325D02*
X128620670Y-39163706D01*
X128620670Y-39163706D02*
X128668289Y-39116086D01*
X128668289Y-39116086D02*
X128715908Y-39020848D01*
X128715908Y-39020848D02*
X128715908Y-38211325D01*
X129715908Y-39211325D02*
X129144480Y-39211325D01*
X129430194Y-39211325D02*
X129430194Y-38211325D01*
X129430194Y-38211325D02*
X129334956Y-38354182D01*
X129334956Y-38354182D02*
X129239718Y-38449420D01*
X129239718Y-38449420D02*
X129144480Y-38497039D01*
X155866666Y-94174819D02*
X155866666Y-94889104D01*
X155866666Y-94889104D02*
X155819047Y-95031961D01*
X155819047Y-95031961D02*
X155723809Y-95127200D01*
X155723809Y-95127200D02*
X155580952Y-95174819D01*
X155580952Y-95174819D02*
X155485714Y-95174819D01*
X156342857Y-95174819D02*
X156342857Y-94174819D01*
X156342857Y-94174819D02*
X156723809Y-94174819D01*
X156723809Y-94174819D02*
X156819047Y-94222438D01*
X156819047Y-94222438D02*
X156866666Y-94270057D01*
X156866666Y-94270057D02*
X156914285Y-94365295D01*
X156914285Y-94365295D02*
X156914285Y-94508152D01*
X156914285Y-94508152D02*
X156866666Y-94603390D01*
X156866666Y-94603390D02*
X156819047Y-94651009D01*
X156819047Y-94651009D02*
X156723809Y-94698628D01*
X156723809Y-94698628D02*
X156342857Y-94698628D01*
X157247619Y-94174819D02*
X157914285Y-94174819D01*
X157914285Y-94174819D02*
X157485714Y-95174819D01*
X99650057Y-50595238D02*
X99602438Y-50690476D01*
X99602438Y-50690476D02*
X99507200Y-50785714D01*
X99507200Y-50785714D02*
X99364342Y-50928571D01*
X99364342Y-50928571D02*
X99316723Y-51023809D01*
X99316723Y-51023809D02*
X99316723Y-51119047D01*
X99554819Y-51071428D02*
X99507200Y-51166666D01*
X99507200Y-51166666D02*
X99411961Y-51261904D01*
X99411961Y-51261904D02*
X99221485Y-51309523D01*
X99221485Y-51309523D02*
X98888152Y-51309523D01*
X98888152Y-51309523D02*
X98697676Y-51261904D01*
X98697676Y-51261904D02*
X98602438Y-51166666D01*
X98602438Y-51166666D02*
X98554819Y-51071428D01*
X98554819Y-51071428D02*
X98554819Y-50880952D01*
X98554819Y-50880952D02*
X98602438Y-50785714D01*
X98602438Y-50785714D02*
X98697676Y-50690476D01*
X98697676Y-50690476D02*
X98888152Y-50642857D01*
X98888152Y-50642857D02*
X99221485Y-50642857D01*
X99221485Y-50642857D02*
X99411961Y-50690476D01*
X99411961Y-50690476D02*
X99507200Y-50785714D01*
X99507200Y-50785714D02*
X99554819Y-50880952D01*
X99554819Y-50880952D02*
X99554819Y-51071428D01*
X99554819Y-49690476D02*
X99554819Y-50261904D01*
X99554819Y-49976190D02*
X98554819Y-49976190D01*
X98554819Y-49976190D02*
X98697676Y-50071428D01*
X98697676Y-50071428D02*
X98792914Y-50166666D01*
X98792914Y-50166666D02*
X98840533Y-50261904D01*
X139334819Y-70333333D02*
X140049104Y-70333333D01*
X140049104Y-70333333D02*
X140191961Y-70380952D01*
X140191961Y-70380952D02*
X140287200Y-70476190D01*
X140287200Y-70476190D02*
X140334819Y-70619047D01*
X140334819Y-70619047D02*
X140334819Y-70714285D01*
X140334819Y-69857142D02*
X139334819Y-69857142D01*
X139334819Y-69857142D02*
X139334819Y-69476190D01*
X139334819Y-69476190D02*
X139382438Y-69380952D01*
X139382438Y-69380952D02*
X139430057Y-69333333D01*
X139430057Y-69333333D02*
X139525295Y-69285714D01*
X139525295Y-69285714D02*
X139668152Y-69285714D01*
X139668152Y-69285714D02*
X139763390Y-69333333D01*
X139763390Y-69333333D02*
X139811009Y-69380952D01*
X139811009Y-69380952D02*
X139858628Y-69476190D01*
X139858628Y-69476190D02*
X139858628Y-69857142D01*
X139334819Y-68428571D02*
X139334819Y-68619047D01*
X139334819Y-68619047D02*
X139382438Y-68714285D01*
X139382438Y-68714285D02*
X139430057Y-68761904D01*
X139430057Y-68761904D02*
X139572914Y-68857142D01*
X139572914Y-68857142D02*
X139763390Y-68904761D01*
X139763390Y-68904761D02*
X140144342Y-68904761D01*
X140144342Y-68904761D02*
X140239580Y-68857142D01*
X140239580Y-68857142D02*
X140287200Y-68809523D01*
X140287200Y-68809523D02*
X140334819Y-68714285D01*
X140334819Y-68714285D02*
X140334819Y-68523809D01*
X140334819Y-68523809D02*
X140287200Y-68428571D01*
X140287200Y-68428571D02*
X140239580Y-68380952D01*
X140239580Y-68380952D02*
X140144342Y-68333333D01*
X140144342Y-68333333D02*
X139906247Y-68333333D01*
X139906247Y-68333333D02*
X139811009Y-68380952D01*
X139811009Y-68380952D02*
X139763390Y-68428571D01*
X139763390Y-68428571D02*
X139715771Y-68523809D01*
X139715771Y-68523809D02*
X139715771Y-68714285D01*
X139715771Y-68714285D02*
X139763390Y-68809523D01*
X139763390Y-68809523D02*
X139811009Y-68857142D01*
X139811009Y-68857142D02*
X139906247Y-68904761D01*
X174824819Y-125452857D02*
X174348628Y-125786190D01*
X174824819Y-126024285D02*
X173824819Y-126024285D01*
X173824819Y-126024285D02*
X173824819Y-125643333D01*
X173824819Y-125643333D02*
X173872438Y-125548095D01*
X173872438Y-125548095D02*
X173920057Y-125500476D01*
X173920057Y-125500476D02*
X174015295Y-125452857D01*
X174015295Y-125452857D02*
X174158152Y-125452857D01*
X174158152Y-125452857D02*
X174253390Y-125500476D01*
X174253390Y-125500476D02*
X174301009Y-125548095D01*
X174301009Y-125548095D02*
X174348628Y-125643333D01*
X174348628Y-125643333D02*
X174348628Y-126024285D01*
X174824819Y-124500476D02*
X174824819Y-125071904D01*
X174824819Y-124786190D02*
X173824819Y-124786190D01*
X173824819Y-124786190D02*
X173967676Y-124881428D01*
X173967676Y-124881428D02*
X174062914Y-124976666D01*
X174062914Y-124976666D02*
X174110533Y-125071904D01*
X174824819Y-123548095D02*
X174824819Y-124119523D01*
X174824819Y-123833809D02*
X173824819Y-123833809D01*
X173824819Y-123833809D02*
X173967676Y-123929047D01*
X173967676Y-123929047D02*
X174062914Y-124024285D01*
X174062914Y-124024285D02*
X174110533Y-124119523D01*
X45794819Y-52583333D02*
X46509104Y-52583333D01*
X46509104Y-52583333D02*
X46651961Y-52630952D01*
X46651961Y-52630952D02*
X46747200Y-52726190D01*
X46747200Y-52726190D02*
X46794819Y-52869047D01*
X46794819Y-52869047D02*
X46794819Y-52964285D01*
X46794819Y-51583333D02*
X46794819Y-52154761D01*
X46794819Y-51869047D02*
X45794819Y-51869047D01*
X45794819Y-51869047D02*
X45937676Y-51964285D01*
X45937676Y-51964285D02*
X46032914Y-52059523D01*
X46032914Y-52059523D02*
X46080533Y-52154761D01*
X92174819Y-55738094D02*
X91174819Y-55738094D01*
X91174819Y-55738094D02*
X91174819Y-55499999D01*
X91174819Y-55499999D02*
X91222438Y-55357142D01*
X91222438Y-55357142D02*
X91317676Y-55261904D01*
X91317676Y-55261904D02*
X91412914Y-55214285D01*
X91412914Y-55214285D02*
X91603390Y-55166666D01*
X91603390Y-55166666D02*
X91746247Y-55166666D01*
X91746247Y-55166666D02*
X91936723Y-55214285D01*
X91936723Y-55214285D02*
X92031961Y-55261904D01*
X92031961Y-55261904D02*
X92127200Y-55357142D01*
X92127200Y-55357142D02*
X92174819Y-55499999D01*
X92174819Y-55499999D02*
X92174819Y-55738094D01*
X92174819Y-54214285D02*
X92174819Y-54785713D01*
X92174819Y-54499999D02*
X91174819Y-54499999D01*
X91174819Y-54499999D02*
X91317676Y-54595237D01*
X91317676Y-54595237D02*
X91412914Y-54690475D01*
X91412914Y-54690475D02*
X91460533Y-54785713D01*
X91054819Y-48911904D02*
X90054819Y-48911904D01*
X91054819Y-48340476D02*
X90483390Y-48769047D01*
X90054819Y-48340476D02*
X90626247Y-48911904D01*
X134666666Y-99534819D02*
X134666666Y-100249104D01*
X134666666Y-100249104D02*
X134619047Y-100391961D01*
X134619047Y-100391961D02*
X134523809Y-100487200D01*
X134523809Y-100487200D02*
X134380952Y-100534819D01*
X134380952Y-100534819D02*
X134285714Y-100534819D01*
X135619047Y-99534819D02*
X135142857Y-99534819D01*
X135142857Y-99534819D02*
X135095238Y-100011009D01*
X135095238Y-100011009D02*
X135142857Y-99963390D01*
X135142857Y-99963390D02*
X135238095Y-99915771D01*
X135238095Y-99915771D02*
X135476190Y-99915771D01*
X135476190Y-99915771D02*
X135571428Y-99963390D01*
X135571428Y-99963390D02*
X135619047Y-100011009D01*
X135619047Y-100011009D02*
X135666666Y-100106247D01*
X135666666Y-100106247D02*
X135666666Y-100344342D01*
X135666666Y-100344342D02*
X135619047Y-100439580D01*
X135619047Y-100439580D02*
X135571428Y-100487200D01*
X135571428Y-100487200D02*
X135476190Y-100534819D01*
X135476190Y-100534819D02*
X135238095Y-100534819D01*
X135238095Y-100534819D02*
X135142857Y-100487200D01*
X135142857Y-100487200D02*
X135095238Y-100439580D01*
X174824819Y-137452857D02*
X174348628Y-137786190D01*
X174824819Y-138024285D02*
X173824819Y-138024285D01*
X173824819Y-138024285D02*
X173824819Y-137643333D01*
X173824819Y-137643333D02*
X173872438Y-137548095D01*
X173872438Y-137548095D02*
X173920057Y-137500476D01*
X173920057Y-137500476D02*
X174015295Y-137452857D01*
X174015295Y-137452857D02*
X174158152Y-137452857D01*
X174158152Y-137452857D02*
X174253390Y-137500476D01*
X174253390Y-137500476D02*
X174301009Y-137548095D01*
X174301009Y-137548095D02*
X174348628Y-137643333D01*
X174348628Y-137643333D02*
X174348628Y-138024285D01*
X174824819Y-136500476D02*
X174824819Y-137071904D01*
X174824819Y-136786190D02*
X173824819Y-136786190D01*
X173824819Y-136786190D02*
X173967676Y-136881428D01*
X173967676Y-136881428D02*
X174062914Y-136976666D01*
X174062914Y-136976666D02*
X174110533Y-137071904D01*
X173824819Y-135595714D02*
X173824819Y-136071904D01*
X173824819Y-136071904D02*
X174301009Y-136119523D01*
X174301009Y-136119523D02*
X174253390Y-136071904D01*
X174253390Y-136071904D02*
X174205771Y-135976666D01*
X174205771Y-135976666D02*
X174205771Y-135738571D01*
X174205771Y-135738571D02*
X174253390Y-135643333D01*
X174253390Y-135643333D02*
X174301009Y-135595714D01*
X174301009Y-135595714D02*
X174396247Y-135548095D01*
X174396247Y-135548095D02*
X174634342Y-135548095D01*
X174634342Y-135548095D02*
X174729580Y-135595714D01*
X174729580Y-135595714D02*
X174777200Y-135643333D01*
X174777200Y-135643333D02*
X174824819Y-135738571D01*
X174824819Y-135738571D02*
X174824819Y-135976666D01*
X174824819Y-135976666D02*
X174777200Y-136071904D01*
X174777200Y-136071904D02*
X174729580Y-136119523D01*
X71084819Y-94666666D02*
X70608628Y-94999999D01*
X71084819Y-95238094D02*
X70084819Y-95238094D01*
X70084819Y-95238094D02*
X70084819Y-94857142D01*
X70084819Y-94857142D02*
X70132438Y-94761904D01*
X70132438Y-94761904D02*
X70180057Y-94714285D01*
X70180057Y-94714285D02*
X70275295Y-94666666D01*
X70275295Y-94666666D02*
X70418152Y-94666666D01*
X70418152Y-94666666D02*
X70513390Y-94714285D01*
X70513390Y-94714285D02*
X70561009Y-94761904D01*
X70561009Y-94761904D02*
X70608628Y-94857142D01*
X70608628Y-94857142D02*
X70608628Y-95238094D01*
X70084819Y-94333332D02*
X70084819Y-93714285D01*
X70084819Y-93714285D02*
X70465771Y-94047618D01*
X70465771Y-94047618D02*
X70465771Y-93904761D01*
X70465771Y-93904761D02*
X70513390Y-93809523D01*
X70513390Y-93809523D02*
X70561009Y-93761904D01*
X70561009Y-93761904D02*
X70656247Y-93714285D01*
X70656247Y-93714285D02*
X70894342Y-93714285D01*
X70894342Y-93714285D02*
X70989580Y-93761904D01*
X70989580Y-93761904D02*
X71037200Y-93809523D01*
X71037200Y-93809523D02*
X71084819Y-93904761D01*
X71084819Y-93904761D02*
X71084819Y-94190475D01*
X71084819Y-94190475D02*
X71037200Y-94285713D01*
X71037200Y-94285713D02*
X70989580Y-94333332D01*
X165874521Y-122538672D02*
X166684044Y-122538672D01*
X166684044Y-122538672D02*
X166779282Y-122491053D01*
X166779282Y-122491053D02*
X166826902Y-122443434D01*
X166826902Y-122443434D02*
X166874521Y-122348196D01*
X166874521Y-122348196D02*
X166874521Y-122157720D01*
X166874521Y-122157720D02*
X166826902Y-122062482D01*
X166826902Y-122062482D02*
X166779282Y-122014863D01*
X166779282Y-122014863D02*
X166684044Y-121967244D01*
X166684044Y-121967244D02*
X165874521Y-121967244D01*
X165874521Y-121062482D02*
X165874521Y-121252958D01*
X165874521Y-121252958D02*
X165922140Y-121348196D01*
X165922140Y-121348196D02*
X165969759Y-121395815D01*
X165969759Y-121395815D02*
X166112616Y-121491053D01*
X166112616Y-121491053D02*
X166303092Y-121538672D01*
X166303092Y-121538672D02*
X166684044Y-121538672D01*
X166684044Y-121538672D02*
X166779282Y-121491053D01*
X166779282Y-121491053D02*
X166826902Y-121443434D01*
X166826902Y-121443434D02*
X166874521Y-121348196D01*
X166874521Y-121348196D02*
X166874521Y-121157720D01*
X166874521Y-121157720D02*
X166826902Y-121062482D01*
X166826902Y-121062482D02*
X166779282Y-121014863D01*
X166779282Y-121014863D02*
X166684044Y-120967244D01*
X166684044Y-120967244D02*
X166445949Y-120967244D01*
X166445949Y-120967244D02*
X166350711Y-121014863D01*
X166350711Y-121014863D02*
X166303092Y-121062482D01*
X166303092Y-121062482D02*
X166255473Y-121157720D01*
X166255473Y-121157720D02*
X166255473Y-121348196D01*
X166255473Y-121348196D02*
X166303092Y-121443434D01*
X166303092Y-121443434D02*
X166350711Y-121491053D01*
X166350711Y-121491053D02*
X166445949Y-121538672D01*
X84261905Y-84174819D02*
X84261905Y-83174819D01*
X84261905Y-83174819D02*
X84500000Y-83174819D01*
X84500000Y-83174819D02*
X84642857Y-83222438D01*
X84642857Y-83222438D02*
X84738095Y-83317676D01*
X84738095Y-83317676D02*
X84785714Y-83412914D01*
X84785714Y-83412914D02*
X84833333Y-83603390D01*
X84833333Y-83603390D02*
X84833333Y-83746247D01*
X84833333Y-83746247D02*
X84785714Y-83936723D01*
X84785714Y-83936723D02*
X84738095Y-84031961D01*
X84738095Y-84031961D02*
X84642857Y-84127200D01*
X84642857Y-84127200D02*
X84500000Y-84174819D01*
X84500000Y-84174819D02*
X84261905Y-84174819D01*
X85214286Y-83270057D02*
X85261905Y-83222438D01*
X85261905Y-83222438D02*
X85357143Y-83174819D01*
X85357143Y-83174819D02*
X85595238Y-83174819D01*
X85595238Y-83174819D02*
X85690476Y-83222438D01*
X85690476Y-83222438D02*
X85738095Y-83270057D01*
X85738095Y-83270057D02*
X85785714Y-83365295D01*
X85785714Y-83365295D02*
X85785714Y-83460533D01*
X85785714Y-83460533D02*
X85738095Y-83603390D01*
X85738095Y-83603390D02*
X85166667Y-84174819D01*
X85166667Y-84174819D02*
X85785714Y-84174819D01*
X91088095Y-83054819D02*
X91088095Y-82054819D01*
X91659523Y-83054819D02*
X91230952Y-82483390D01*
X91659523Y-82054819D02*
X91088095Y-82626247D01*
X51166666Y-64034819D02*
X51166666Y-64749104D01*
X51166666Y-64749104D02*
X51119047Y-64891961D01*
X51119047Y-64891961D02*
X51023809Y-64987200D01*
X51023809Y-64987200D02*
X50880952Y-65034819D01*
X50880952Y-65034819D02*
X50785714Y-65034819D01*
X52071428Y-64368152D02*
X52071428Y-65034819D01*
X51833333Y-63987200D02*
X51595238Y-64701485D01*
X51595238Y-64701485D02*
X52214285Y-64701485D01*
X159225392Y-138567915D02*
X158892059Y-138091724D01*
X158653964Y-138567915D02*
X158653964Y-137567915D01*
X158653964Y-137567915D02*
X159034916Y-137567915D01*
X159034916Y-137567915D02*
X159130154Y-137615534D01*
X159130154Y-137615534D02*
X159177773Y-137663153D01*
X159177773Y-137663153D02*
X159225392Y-137758391D01*
X159225392Y-137758391D02*
X159225392Y-137901248D01*
X159225392Y-137901248D02*
X159177773Y-137996486D01*
X159177773Y-137996486D02*
X159130154Y-138044105D01*
X159130154Y-138044105D02*
X159034916Y-138091724D01*
X159034916Y-138091724D02*
X158653964Y-138091724D01*
X160082535Y-137901248D02*
X160082535Y-138567915D01*
X159844440Y-137520296D02*
X159606345Y-138234581D01*
X159606345Y-138234581D02*
X160225392Y-138234581D01*
X96738095Y-77074819D02*
X97309523Y-77074819D01*
X97023809Y-78074819D02*
X97023809Y-77074819D01*
X97642857Y-78074819D02*
X97642857Y-77074819D01*
X97642857Y-77074819D02*
X98023809Y-77074819D01*
X98023809Y-77074819D02*
X98119047Y-77122438D01*
X98119047Y-77122438D02*
X98166666Y-77170057D01*
X98166666Y-77170057D02*
X98214285Y-77265295D01*
X98214285Y-77265295D02*
X98214285Y-77408152D01*
X98214285Y-77408152D02*
X98166666Y-77503390D01*
X98166666Y-77503390D02*
X98119047Y-77551009D01*
X98119047Y-77551009D02*
X98023809Y-77598628D01*
X98023809Y-77598628D02*
X97642857Y-77598628D01*
X99119047Y-77074819D02*
X98642857Y-77074819D01*
X98642857Y-77074819D02*
X98595238Y-77551009D01*
X98595238Y-77551009D02*
X98642857Y-77503390D01*
X98642857Y-77503390D02*
X98738095Y-77455771D01*
X98738095Y-77455771D02*
X98976190Y-77455771D01*
X98976190Y-77455771D02*
X99071428Y-77503390D01*
X99071428Y-77503390D02*
X99119047Y-77551009D01*
X99119047Y-77551009D02*
X99166666Y-77646247D01*
X99166666Y-77646247D02*
X99166666Y-77884342D01*
X99166666Y-77884342D02*
X99119047Y-77979580D01*
X99119047Y-77979580D02*
X99071428Y-78027200D01*
X99071428Y-78027200D02*
X98976190Y-78074819D01*
X98976190Y-78074819D02*
X98738095Y-78074819D01*
X98738095Y-78074819D02*
X98642857Y-78027200D01*
X98642857Y-78027200D02*
X98595238Y-77979580D01*
X157084819Y-65856666D02*
X156608628Y-66189999D01*
X157084819Y-66428094D02*
X156084819Y-66428094D01*
X156084819Y-66428094D02*
X156084819Y-66047142D01*
X156084819Y-66047142D02*
X156132438Y-65951904D01*
X156132438Y-65951904D02*
X156180057Y-65904285D01*
X156180057Y-65904285D02*
X156275295Y-65856666D01*
X156275295Y-65856666D02*
X156418152Y-65856666D01*
X156418152Y-65856666D02*
X156513390Y-65904285D01*
X156513390Y-65904285D02*
X156561009Y-65951904D01*
X156561009Y-65951904D02*
X156608628Y-66047142D01*
X156608628Y-66047142D02*
X156608628Y-66428094D01*
X156084819Y-64951904D02*
X156084819Y-65428094D01*
X156084819Y-65428094D02*
X156561009Y-65475713D01*
X156561009Y-65475713D02*
X156513390Y-65428094D01*
X156513390Y-65428094D02*
X156465771Y-65332856D01*
X156465771Y-65332856D02*
X156465771Y-65094761D01*
X156465771Y-65094761D02*
X156513390Y-64999523D01*
X156513390Y-64999523D02*
X156561009Y-64951904D01*
X156561009Y-64951904D02*
X156656247Y-64904285D01*
X156656247Y-64904285D02*
X156894342Y-64904285D01*
X156894342Y-64904285D02*
X156989580Y-64951904D01*
X156989580Y-64951904D02*
X157037200Y-64999523D01*
X157037200Y-64999523D02*
X157084819Y-65094761D01*
X157084819Y-65094761D02*
X157084819Y-65332856D01*
X157084819Y-65332856D02*
X157037200Y-65428094D01*
X157037200Y-65428094D02*
X156989580Y-65475713D01*
X47574819Y-104038333D02*
X48289104Y-104038333D01*
X48289104Y-104038333D02*
X48431961Y-104085952D01*
X48431961Y-104085952D02*
X48527200Y-104181190D01*
X48527200Y-104181190D02*
X48574819Y-104324047D01*
X48574819Y-104324047D02*
X48574819Y-104419285D01*
X48574819Y-103514523D02*
X48574819Y-103324047D01*
X48574819Y-103324047D02*
X48527200Y-103228809D01*
X48527200Y-103228809D02*
X48479580Y-103181190D01*
X48479580Y-103181190D02*
X48336723Y-103085952D01*
X48336723Y-103085952D02*
X48146247Y-103038333D01*
X48146247Y-103038333D02*
X47765295Y-103038333D01*
X47765295Y-103038333D02*
X47670057Y-103085952D01*
X47670057Y-103085952D02*
X47622438Y-103133571D01*
X47622438Y-103133571D02*
X47574819Y-103228809D01*
X47574819Y-103228809D02*
X47574819Y-103419285D01*
X47574819Y-103419285D02*
X47622438Y-103514523D01*
X47622438Y-103514523D02*
X47670057Y-103562142D01*
X47670057Y-103562142D02*
X47765295Y-103609761D01*
X47765295Y-103609761D02*
X48003390Y-103609761D01*
X48003390Y-103609761D02*
X48098628Y-103562142D01*
X48098628Y-103562142D02*
X48146247Y-103514523D01*
X48146247Y-103514523D02*
X48193866Y-103419285D01*
X48193866Y-103419285D02*
X48193866Y-103228809D01*
X48193866Y-103228809D02*
X48146247Y-103133571D01*
X48146247Y-103133571D02*
X48098628Y-103085952D01*
X48098628Y-103085952D02*
X48003390Y-103038333D01*
X101176049Y-72883557D02*
X101890334Y-72883557D01*
X101890334Y-72883557D02*
X102033191Y-72931176D01*
X102033191Y-72931176D02*
X102128430Y-73026414D01*
X102128430Y-73026414D02*
X102176049Y-73169271D01*
X102176049Y-73169271D02*
X102176049Y-73264509D01*
X102176049Y-72407366D02*
X101176049Y-72407366D01*
X101176049Y-72407366D02*
X101176049Y-72026414D01*
X101176049Y-72026414D02*
X101223668Y-71931176D01*
X101223668Y-71931176D02*
X101271287Y-71883557D01*
X101271287Y-71883557D02*
X101366525Y-71835938D01*
X101366525Y-71835938D02*
X101509382Y-71835938D01*
X101509382Y-71835938D02*
X101604620Y-71883557D01*
X101604620Y-71883557D02*
X101652239Y-71931176D01*
X101652239Y-71931176D02*
X101699858Y-72026414D01*
X101699858Y-72026414D02*
X101699858Y-72407366D01*
X102176049Y-71359747D02*
X102176049Y-71169271D01*
X102176049Y-71169271D02*
X102128430Y-71074033D01*
X102128430Y-71074033D02*
X102080810Y-71026414D01*
X102080810Y-71026414D02*
X101937953Y-70931176D01*
X101937953Y-70931176D02*
X101747477Y-70883557D01*
X101747477Y-70883557D02*
X101366525Y-70883557D01*
X101366525Y-70883557D02*
X101271287Y-70931176D01*
X101271287Y-70931176D02*
X101223668Y-70978795D01*
X101223668Y-70978795D02*
X101176049Y-71074033D01*
X101176049Y-71074033D02*
X101176049Y-71264509D01*
X101176049Y-71264509D02*
X101223668Y-71359747D01*
X101223668Y-71359747D02*
X101271287Y-71407366D01*
X101271287Y-71407366D02*
X101366525Y-71454985D01*
X101366525Y-71454985D02*
X101604620Y-71454985D01*
X101604620Y-71454985D02*
X101699858Y-71407366D01*
X101699858Y-71407366D02*
X101747477Y-71359747D01*
X101747477Y-71359747D02*
X101795096Y-71264509D01*
X101795096Y-71264509D02*
X101795096Y-71074033D01*
X101795096Y-71074033D02*
X101747477Y-70978795D01*
X101747477Y-70978795D02*
X101699858Y-70931176D01*
X101699858Y-70931176D02*
X101604620Y-70883557D01*
%TO.C,C9*%
D11*
X136370000Y-58880000D02*
X136370000Y-67120000D01*
X133630000Y-58880000D02*
X136370000Y-58880000D01*
X136370000Y-67120000D02*
X133630000Y-67120000D01*
X133630000Y-67120000D02*
X133630000Y-58880000D01*
%TO.C,R8*%
X112164514Y-68488044D02*
X105624514Y-68488044D01*
X112164514Y-68158044D02*
X112164514Y-68488044D01*
X112164514Y-66078044D02*
X112164514Y-65748044D01*
X112164514Y-65748044D02*
X105624514Y-65748044D01*
X105624514Y-68488044D02*
X105624514Y-68158044D01*
X105624514Y-65748044D02*
X105624514Y-66078044D01*
%TO.C,R7*%
X112270000Y-73370000D02*
X105730000Y-73370000D01*
X112270000Y-73040000D02*
X112270000Y-73370000D01*
X112270000Y-70960000D02*
X112270000Y-70630000D01*
X112270000Y-70630000D02*
X105730000Y-70630000D01*
X105730000Y-73370000D02*
X105730000Y-73040000D01*
X105730000Y-70630000D02*
X105730000Y-70960000D01*
%TO.C,C10*%
X123625000Y-78800000D02*
X128865000Y-78800000D01*
X123625000Y-81540000D02*
X123625000Y-78800000D01*
X128865000Y-78800000D02*
X128865000Y-81540000D01*
X128865000Y-81540000D02*
X123625000Y-81540000D01*
%TO.C,D4*%
X142280000Y-68630000D02*
X143160000Y-68630000D01*
X142280000Y-76705000D02*
X147720000Y-76705000D01*
X142280000Y-76825000D02*
X147720000Y-76825000D01*
X142280000Y-76945000D02*
X147720000Y-76945000D01*
X142280000Y-78370000D02*
X142280000Y-68630000D01*
X143160000Y-78370000D02*
X142280000Y-78370000D01*
X146840000Y-78370000D02*
X147720000Y-78370000D01*
X147720000Y-68630000D02*
X146840000Y-68630000D01*
X147720000Y-78370000D02*
X147720000Y-68630000D01*
%TO.C,J8*%
X126080000Y-86380000D02*
X126080000Y-85000000D01*
X127460000Y-86380000D02*
X126080000Y-86380000D01*
X128730000Y-83620000D02*
X131380000Y-83620000D01*
X128730000Y-86380000D02*
X128730000Y-83620000D01*
X128730000Y-86380000D02*
X131380000Y-86380000D01*
X131380000Y-86380000D02*
X131380000Y-83620000D01*
%TO.C,L1*%
X84530000Y-133170000D02*
X84530000Y-89750000D01*
X84530000Y-133170000D02*
X122870000Y-133170000D01*
X122870000Y-89750000D02*
X84530000Y-89750000D01*
X122870000Y-89750000D02*
X122870000Y-133170000D01*
%TO.C,R10*%
X131335000Y-78690000D02*
X131335000Y-79020000D01*
X131335000Y-81430000D02*
X131335000Y-81100000D01*
X137875000Y-78690000D02*
X131335000Y-78690000D01*
X137875000Y-79020000D02*
X137875000Y-78690000D01*
X137875000Y-81100000D02*
X137875000Y-81430000D01*
X137875000Y-81430000D02*
X131335000Y-81430000D01*
%TO.C,U3*%
X121593442Y-69075621D02*
X121593442Y-73575621D01*
X121593442Y-73575621D02*
X131873442Y-73575621D01*
X131873442Y-69075621D02*
X121593442Y-69075621D01*
X131873442Y-70325621D02*
X131873442Y-69075621D01*
X131873442Y-73575621D02*
X131873442Y-72325621D01*
X121533442Y-66075621D02*
X131933442Y-66075621D01*
X131933442Y-76575621D01*
X121533442Y-76575621D01*
X121533442Y-66075621D01*
X131873442Y-72325621D02*
G75*
G02*
X131873442Y-70325621I0J1000000D01*
G01*
%TO.C,R2*%
X163370000Y-45070000D02*
X163370000Y-38530000D01*
X163370000Y-38530000D02*
X163040000Y-38530000D01*
X163040000Y-45070000D02*
X163370000Y-45070000D01*
X160960000Y-45070000D02*
X160630000Y-45070000D01*
X160630000Y-45070000D02*
X160630000Y-38530000D01*
X160630000Y-38530000D02*
X160960000Y-38530000D01*
%TO.C,R1*%
X160170000Y-45060000D02*
X159840000Y-45060000D01*
X160170000Y-38520000D02*
X160170000Y-45060000D01*
X159840000Y-38520000D02*
X160170000Y-38520000D01*
X157760000Y-38520000D02*
X157430000Y-38520000D01*
X157430000Y-45060000D02*
X157760000Y-45060000D01*
X157430000Y-38520000D02*
X157430000Y-45060000D01*
%TO.C,C3*%
X63220000Y-53912323D02*
X59543000Y-53912323D01*
X63220000Y-53952323D02*
X59553000Y-53952323D01*
X63220000Y-53992323D02*
X59564000Y-53992323D01*
X63220000Y-54032323D02*
X59575000Y-54032323D01*
X63220000Y-54072323D02*
X59587000Y-54072323D01*
X63220000Y-54112323D02*
X59599000Y-54112323D01*
X63220000Y-54152323D02*
X59611000Y-54152323D01*
X63220000Y-54192323D02*
X59623000Y-54192323D01*
X63220000Y-54232323D02*
X59636000Y-54232323D01*
X63220000Y-54272323D02*
X59650000Y-54272323D01*
X63220000Y-54312323D02*
X59663000Y-54312323D01*
X63220000Y-54352323D02*
X59678000Y-54352323D01*
X63220000Y-54392323D02*
X59692000Y-54392323D01*
X63220000Y-54432323D02*
X59707000Y-54432323D01*
X63220000Y-54472323D02*
X59722000Y-54472323D01*
X63220000Y-54512323D02*
X59738000Y-54512323D01*
X63220000Y-54552323D02*
X59754000Y-54552323D01*
X63220000Y-54592323D02*
X59770000Y-54592323D01*
X63220000Y-54632323D02*
X59787000Y-54632323D01*
X63220000Y-54672323D02*
X59804000Y-54672323D01*
X63220000Y-54712323D02*
X59822000Y-54712323D01*
X63220000Y-54752323D02*
X59840000Y-54752323D01*
X63220000Y-54792323D02*
X59858000Y-54792323D01*
X63220000Y-54832323D02*
X59877000Y-54832323D01*
X63220000Y-54872323D02*
X59896000Y-54872323D01*
X63220000Y-54912323D02*
X59916000Y-54912323D01*
X63220000Y-54952323D02*
X59936000Y-54952323D01*
X63220000Y-54992323D02*
X59956000Y-54992323D01*
X63220000Y-55032323D02*
X59977000Y-55032323D01*
X63220000Y-55072323D02*
X59999000Y-55072323D01*
X63220000Y-55112323D02*
X60021000Y-55112323D01*
X63220000Y-55152323D02*
X60043000Y-55152323D01*
X63220000Y-55192323D02*
X60066000Y-55192323D01*
X63220000Y-55232323D02*
X60089000Y-55232323D01*
X63220000Y-55272323D02*
X60113000Y-55272323D01*
X63220000Y-55312323D02*
X60137000Y-55312323D01*
X63220000Y-55352323D02*
X60162000Y-55352323D01*
X63220000Y-55392323D02*
X60188000Y-55392323D01*
X63220000Y-55432323D02*
X60213000Y-55432323D01*
X63220000Y-55472323D02*
X60240000Y-55472323D01*
X63220000Y-55512323D02*
X60267000Y-55512323D01*
X63220000Y-55552323D02*
X60294000Y-55552323D01*
X63220000Y-55592323D02*
X60322000Y-55592323D01*
X63220000Y-55632323D02*
X60351000Y-55632323D01*
X63220000Y-55672323D02*
X60380000Y-55672323D01*
X63220000Y-55712323D02*
X60410000Y-55712323D01*
X63220000Y-55752323D02*
X60440000Y-55752323D01*
X63220000Y-55792323D02*
X60472000Y-55792323D01*
X63220000Y-55832323D02*
X60503000Y-55832323D01*
X63220000Y-55872323D02*
X60536000Y-55872323D01*
X63220000Y-55912323D02*
X60569000Y-55912323D01*
X63220000Y-55952323D02*
X60602000Y-55952323D01*
X63220000Y-55992323D02*
X60637000Y-55992323D01*
X63220000Y-56032323D02*
X60672000Y-56032323D01*
X63220000Y-56072323D02*
X60708000Y-56072323D01*
X63220000Y-56112323D02*
X60744000Y-56112323D01*
X63220000Y-56152323D02*
X60782000Y-56152323D01*
X63220000Y-56192323D02*
X60820000Y-56192323D01*
X63220000Y-56232323D02*
X60859000Y-56232323D01*
X63220000Y-56272323D02*
X60899000Y-56272323D01*
X63220000Y-56312323D02*
X60940000Y-56312323D01*
X63220000Y-56352323D02*
X60982000Y-56352323D01*
X65059000Y-57712323D02*
X63861000Y-57712323D01*
X65322000Y-57672323D02*
X63598000Y-57672323D01*
X65522000Y-57632323D02*
X63398000Y-57632323D01*
X65690000Y-57592323D02*
X63230000Y-57592323D01*
X65837000Y-57552323D02*
X63083000Y-57552323D01*
X65969000Y-57512323D02*
X62951000Y-57512323D01*
X66090000Y-57472323D02*
X62830000Y-57472323D01*
X66202000Y-57432323D02*
X62718000Y-57432323D01*
X66306000Y-57392323D02*
X62614000Y-57392323D01*
X66404000Y-57352323D02*
X62516000Y-57352323D01*
X66497000Y-57312323D02*
X62423000Y-57312323D01*
X66584000Y-57272323D02*
X62336000Y-57272323D01*
X66668000Y-57232323D02*
X62252000Y-57232323D01*
X66748000Y-57192323D02*
X62172000Y-57192323D01*
X66825000Y-57152323D02*
X62095000Y-57152323D01*
X66899000Y-57112323D02*
X62021000Y-57112323D01*
X66970000Y-57072323D02*
X61950000Y-57072323D01*
X67038000Y-57032323D02*
X61882000Y-57032323D01*
X67104000Y-56992323D02*
X61816000Y-56992323D01*
X67168000Y-56952323D02*
X61752000Y-56952323D01*
X67230000Y-56912323D02*
X61690000Y-56912323D01*
X67290000Y-56872323D02*
X61630000Y-56872323D01*
X67335000Y-47152677D02*
X67335000Y-48152677D01*
X67348000Y-56832323D02*
X61572000Y-56832323D01*
X67405000Y-56792323D02*
X61515000Y-56792323D01*
X67460000Y-56752323D02*
X61460000Y-56752323D01*
X67513000Y-56712323D02*
X61407000Y-56712323D01*
X67565000Y-56672323D02*
X61355000Y-56672323D01*
X67616000Y-56632323D02*
X61304000Y-56632323D01*
X67665000Y-56592323D02*
X61255000Y-56592323D01*
X67714000Y-56552323D02*
X61206000Y-56552323D01*
X67761000Y-56512323D02*
X61159000Y-56512323D01*
X67807000Y-56472323D02*
X61113000Y-56472323D01*
X67835000Y-47652677D02*
X66835000Y-47652677D01*
X67851000Y-56432323D02*
X61069000Y-56432323D01*
X67895000Y-56392323D02*
X61025000Y-56392323D01*
X67938000Y-56352323D02*
X65700000Y-56352323D01*
X67980000Y-56312323D02*
X65700000Y-56312323D01*
X68021000Y-56272323D02*
X65700000Y-56272323D01*
X68061000Y-56232323D02*
X65700000Y-56232323D01*
X68100000Y-56192323D02*
X65700000Y-56192323D01*
X68138000Y-56152323D02*
X65700000Y-56152323D01*
X68176000Y-56112323D02*
X65700000Y-56112323D01*
X68212000Y-56072323D02*
X65700000Y-56072323D01*
X68248000Y-56032323D02*
X65700000Y-56032323D01*
X68283000Y-55992323D02*
X65700000Y-55992323D01*
X68318000Y-55952323D02*
X65700000Y-55952323D01*
X68351000Y-55912323D02*
X65700000Y-55912323D01*
X68384000Y-55872323D02*
X65700000Y-55872323D01*
X68417000Y-55832323D02*
X65700000Y-55832323D01*
X68448000Y-55792323D02*
X65700000Y-55792323D01*
X68480000Y-55752323D02*
X65700000Y-55752323D01*
X68510000Y-55712323D02*
X65700000Y-55712323D01*
X68540000Y-55672323D02*
X65700000Y-55672323D01*
X68569000Y-55632323D02*
X65700000Y-55632323D01*
X68598000Y-55592323D02*
X65700000Y-55592323D01*
X68626000Y-55552323D02*
X65700000Y-55552323D01*
X68653000Y-55512323D02*
X65700000Y-55512323D01*
X68680000Y-55472323D02*
X65700000Y-55472323D01*
X68707000Y-55432323D02*
X65700000Y-55432323D01*
X68732000Y-55392323D02*
X65700000Y-55392323D01*
X68758000Y-55352323D02*
X65700000Y-55352323D01*
X68783000Y-55312323D02*
X65700000Y-55312323D01*
X68807000Y-55272323D02*
X65700000Y-55272323D01*
X68831000Y-55232323D02*
X65700000Y-55232323D01*
X68854000Y-55192323D02*
X65700000Y-55192323D01*
X68877000Y-55152323D02*
X65700000Y-55152323D01*
X68899000Y-55112323D02*
X65700000Y-55112323D01*
X68921000Y-55072323D02*
X65700000Y-55072323D01*
X68943000Y-55032323D02*
X65700000Y-55032323D01*
X68964000Y-54992323D02*
X65700000Y-54992323D01*
X68984000Y-54952323D02*
X65700000Y-54952323D01*
X69004000Y-54912323D02*
X65700000Y-54912323D01*
X69024000Y-54872323D02*
X65700000Y-54872323D01*
X69043000Y-54832323D02*
X65700000Y-54832323D01*
X69062000Y-54792323D02*
X65700000Y-54792323D01*
X69080000Y-54752323D02*
X65700000Y-54752323D01*
X69098000Y-54712323D02*
X65700000Y-54712323D01*
X69116000Y-54672323D02*
X65700000Y-54672323D01*
X69133000Y-54632323D02*
X65700000Y-54632323D01*
X69150000Y-54592323D02*
X65700000Y-54592323D01*
X69166000Y-54552323D02*
X65700000Y-54552323D01*
X69182000Y-54512323D02*
X65700000Y-54512323D01*
X69198000Y-54472323D02*
X65700000Y-54472323D01*
X69213000Y-54432323D02*
X65700000Y-54432323D01*
X69228000Y-54392323D02*
X65700000Y-54392323D01*
X69242000Y-54352323D02*
X65700000Y-54352323D01*
X69257000Y-54312323D02*
X65700000Y-54312323D01*
X69270000Y-54272323D02*
X65700000Y-54272323D01*
X69284000Y-54232323D02*
X65700000Y-54232323D01*
X69297000Y-54192323D02*
X65700000Y-54192323D01*
X69309000Y-54152323D02*
X65700000Y-54152323D01*
X69321000Y-54112323D02*
X65700000Y-54112323D01*
X69333000Y-54072323D02*
X65700000Y-54072323D01*
X69345000Y-54032323D02*
X65700000Y-54032323D01*
X69356000Y-53992323D02*
X65700000Y-53992323D01*
X69367000Y-53952323D02*
X65700000Y-53952323D01*
X69377000Y-53912323D02*
X65700000Y-53912323D01*
X69388000Y-53872323D02*
X59532000Y-53872323D01*
X69397000Y-53832323D02*
X59523000Y-53832323D01*
X69407000Y-53792323D02*
X59513000Y-53792323D01*
X69416000Y-53752323D02*
X59504000Y-53752323D01*
X69425000Y-53712323D02*
X59495000Y-53712323D01*
X69433000Y-53672323D02*
X59487000Y-53672323D01*
X69441000Y-53632323D02*
X59479000Y-53632323D01*
X69449000Y-53592323D02*
X59471000Y-53592323D01*
X69457000Y-53552323D02*
X59463000Y-53552323D01*
X69464000Y-53512323D02*
X59456000Y-53512323D01*
X69471000Y-53472323D02*
X59449000Y-53472323D01*
X69477000Y-53432323D02*
X59443000Y-53432323D01*
X69483000Y-53392323D02*
X59437000Y-53392323D01*
X69489000Y-53352323D02*
X59431000Y-53352323D01*
X69495000Y-53312323D02*
X59425000Y-53312323D01*
X69500000Y-53272323D02*
X59420000Y-53272323D01*
X69505000Y-53232323D02*
X59415000Y-53232323D01*
X69509000Y-53192323D02*
X59411000Y-53192323D01*
X69514000Y-53152323D02*
X59406000Y-53152323D01*
X69517000Y-53112323D02*
X59403000Y-53112323D01*
X69521000Y-53072323D02*
X59399000Y-53072323D01*
X69524000Y-53032323D02*
X59396000Y-53032323D01*
X69527000Y-52992323D02*
X59393000Y-52992323D01*
X69530000Y-52952323D02*
X59390000Y-52952323D01*
X69532000Y-52912323D02*
X59388000Y-52912323D01*
X69534000Y-52872323D02*
X59386000Y-52872323D01*
X69536000Y-52832323D02*
X59384000Y-52832323D01*
X69537000Y-52792323D02*
X59383000Y-52792323D01*
X69539000Y-52712323D02*
X59381000Y-52712323D01*
X69539000Y-52752323D02*
X59381000Y-52752323D01*
X69540000Y-52632323D02*
X59380000Y-52632323D01*
X69540000Y-52672323D02*
X59380000Y-52672323D01*
X69580000Y-52632323D02*
G75*
G02*
X59340000Y-52632323I-5120000J0D01*
G01*
X59340000Y-52632323D02*
G75*
G02*
X69580000Y-52632323I5120000J0D01*
G01*
%TO.C,Rc1*%
X148719702Y-118686768D02*
X148719702Y-125226768D01*
X148719702Y-125226768D02*
X149049702Y-125226768D01*
X149049702Y-118686768D02*
X148719702Y-118686768D01*
X151129702Y-118686768D02*
X151459702Y-118686768D01*
X151459702Y-118686768D02*
X151459702Y-125226768D01*
X151459702Y-125226768D02*
X151129702Y-125226768D01*
%TO.C,Q2*%
X76890000Y-70690000D02*
X87110000Y-70690000D01*
X76890000Y-75310000D02*
X76890000Y-70690000D01*
X80150000Y-75310000D02*
X80150000Y-73930000D01*
X83850000Y-75310000D02*
X83850000Y-73930000D01*
X87110000Y-70690000D02*
X87110000Y-75310000D01*
X87110000Y-73930000D02*
X76890000Y-73930000D01*
X87110000Y-75310000D02*
X76890000Y-75310000D01*
%TO.C,JP5*%
X129325921Y-62491680D02*
X129325921Y-63871680D01*
X127945921Y-62491680D02*
X129325921Y-62491680D01*
X126675921Y-62491680D02*
X124025921Y-62491680D01*
X126675921Y-62491680D02*
X126675921Y-65251680D01*
X124025921Y-62491680D02*
X124025921Y-65251680D01*
X126675921Y-65251680D02*
X124025921Y-65251680D01*
%TO.C,Rf1*%
X159340000Y-76630000D02*
X165880000Y-76630000D01*
X159340000Y-76960000D02*
X159340000Y-76630000D01*
X159340000Y-79040000D02*
X159340000Y-79370000D01*
X159340000Y-79370000D02*
X165880000Y-79370000D01*
X165880000Y-76630000D02*
X165880000Y-76960000D01*
X165880000Y-79370000D02*
X165880000Y-79040000D01*
%TO.C,Cc2*%
X146219702Y-113396768D02*
X151459702Y-113396768D01*
X146219702Y-116136768D02*
X146219702Y-113396768D01*
X151459702Y-113396768D02*
X151459702Y-116136768D01*
X151459702Y-116136768D02*
X146219702Y-116136768D01*
%TO.C,JP8*%
X102120000Y-46620000D02*
X102120000Y-49380000D01*
X104770000Y-46620000D02*
X102120000Y-46620000D01*
X104770000Y-46620000D02*
X104770000Y-49380000D01*
X104770000Y-49380000D02*
X102120000Y-49380000D01*
X106040000Y-46620000D02*
X107420000Y-46620000D01*
X107420000Y-46620000D02*
X107420000Y-48000000D01*
%TO.C,C14*%
X165919702Y-124390475D02*
X168659702Y-124390475D01*
X165919702Y-129630475D02*
X165919702Y-124390475D01*
X168659702Y-124390475D02*
X168659702Y-129630475D01*
X168659702Y-129630475D02*
X165919702Y-129630475D01*
%TO.C,U4*%
X155060000Y-49965962D02*
X155060000Y-54465962D01*
X155060000Y-54465962D02*
X165340000Y-54465962D01*
X165340000Y-49965962D02*
X155060000Y-49965962D01*
X165340000Y-51215962D02*
X165340000Y-49965962D01*
X165340000Y-54465962D02*
X165340000Y-53215962D01*
X155000000Y-46965962D02*
X165400000Y-46965962D01*
X165400000Y-57465962D01*
X155000000Y-57465962D01*
X155000000Y-46965962D01*
X165340000Y-53215962D02*
G75*
G02*
X165340000Y-51215962I0J1000000D01*
G01*
%TO.C,C6*%
X57880000Y-83630000D02*
X63120000Y-83630000D01*
X57880000Y-98370000D02*
X57880000Y-83630000D01*
X63120000Y-83630000D02*
X63120000Y-98370000D01*
X63120000Y-98370000D02*
X57880000Y-98370000D01*
%TO.C,Rc2*%
X156730000Y-105130000D02*
X156730000Y-105460000D01*
X156730000Y-107870000D02*
X156730000Y-107540000D01*
X163270000Y-105130000D02*
X156730000Y-105130000D01*
X163270000Y-105460000D02*
X163270000Y-105130000D01*
X163270000Y-107540000D02*
X163270000Y-107870000D01*
X163270000Y-107870000D02*
X156730000Y-107870000D01*
%TO.C,J6*%
X168945000Y-79380000D02*
X168945000Y-78000000D01*
X170325000Y-79380000D02*
X168945000Y-79380000D01*
X171595000Y-76620000D02*
X174245000Y-76620000D01*
X171595000Y-79380000D02*
X171595000Y-76620000D01*
X171595000Y-79380000D02*
X174245000Y-79380000D01*
X174245000Y-79380000D02*
X174245000Y-76620000D01*
%TO.C,Rf2*%
X159340000Y-73030000D02*
X165880000Y-73030000D01*
X159340000Y-73360000D02*
X159340000Y-73030000D01*
X159340000Y-75440000D02*
X159340000Y-75770000D01*
X159340000Y-75770000D02*
X165880000Y-75770000D01*
X165880000Y-73030000D02*
X165880000Y-73360000D01*
X165880000Y-75770000D02*
X165880000Y-75440000D01*
%TO.C,Cc3*%
X158796289Y-108530000D02*
X161536289Y-108530000D01*
X158796289Y-113770000D02*
X158796289Y-108530000D01*
X161536289Y-108530000D02*
X161536289Y-113770000D01*
X161536289Y-113770000D02*
X158796289Y-113770000D01*
%TO.C,J2*%
X54580000Y-44380000D02*
X54580000Y-43000000D01*
X55960000Y-44380000D02*
X54580000Y-44380000D01*
X57230000Y-41620000D02*
X59880000Y-41620000D01*
X57230000Y-44380000D02*
X57230000Y-41620000D01*
X57230000Y-44380000D02*
X59880000Y-44380000D01*
X59880000Y-44380000D02*
X59880000Y-41620000D01*
%TO.C,U2*%
X155158308Y-84150000D02*
X155158308Y-88650000D01*
X155158308Y-88650000D02*
X165438308Y-88650000D01*
X165438308Y-84150000D02*
X155158308Y-84150000D01*
X165438308Y-85400000D02*
X165438308Y-84150000D01*
X165438308Y-88650000D02*
X165438308Y-87400000D01*
X155098308Y-81150000D02*
X165498308Y-81150000D01*
X165498308Y-91650000D01*
X155098308Y-91650000D01*
X155098308Y-81150000D01*
X165438308Y-87400000D02*
G75*
G02*
X165438308Y-85400000I0J1000000D01*
G01*
%TO.C,C7*%
X166380000Y-88630000D02*
X171620000Y-88630000D01*
X166380000Y-91370000D02*
X166380000Y-88630000D01*
X171620000Y-88630000D02*
X171620000Y-91370000D01*
X171620000Y-91370000D02*
X166380000Y-91370000D01*
%TO.C,R9*%
X163040000Y-94630000D02*
X169580000Y-94630000D01*
X163040000Y-94960000D02*
X163040000Y-94630000D01*
X163040000Y-97040000D02*
X163040000Y-97370000D01*
X163040000Y-97370000D02*
X169580000Y-97370000D01*
X169580000Y-94630000D02*
X169580000Y-94960000D01*
X169580000Y-97370000D02*
X169580000Y-97040000D01*
%TO.C,C2*%
X120336385Y-41636506D02*
X123076385Y-41636506D01*
X120336385Y-46876506D02*
X120336385Y-41636506D01*
X123076385Y-41636506D02*
X123076385Y-46876506D01*
X123076385Y-46876506D02*
X120336385Y-46876506D01*
%TO.C,C1*%
X137370000Y-46870000D02*
X134630000Y-46870000D01*
X137370000Y-41630000D02*
X137370000Y-46870000D01*
X134630000Y-46870000D02*
X134630000Y-41630000D01*
X134630000Y-41630000D02*
X137370000Y-41630000D01*
%TO.C,R12*%
X155920000Y-130939530D02*
X162460000Y-130939530D01*
X155920000Y-131269530D02*
X155920000Y-130939530D01*
X155920000Y-133349530D02*
X155920000Y-133679530D01*
X155920000Y-133679530D02*
X162460000Y-133679530D01*
X162460000Y-130939530D02*
X162460000Y-131269530D01*
X162460000Y-133679530D02*
X162460000Y-133349530D01*
%TO.C,D3*%
X74545000Y-82210000D02*
X71455000Y-82210000D01*
X73000000Y-87760000D02*
G75*
G02*
X71455170Y-82210000I0J2990000D01*
G01*
X74544830Y-82210000D02*
G75*
G02*
X73000000Y-87760000I-1544830J-2560000D01*
G01*
X75500000Y-84770000D02*
G75*
G02*
X70500000Y-84770000I-2500000J0D01*
G01*
X70500000Y-84770000D02*
G75*
G02*
X75500000Y-84770000I2500000J0D01*
G01*
%TO.C,C15*%
X74220000Y-53912323D02*
X70543000Y-53912323D01*
X74220000Y-53952323D02*
X70553000Y-53952323D01*
X74220000Y-53992323D02*
X70564000Y-53992323D01*
X74220000Y-54032323D02*
X70575000Y-54032323D01*
X74220000Y-54072323D02*
X70587000Y-54072323D01*
X74220000Y-54112323D02*
X70599000Y-54112323D01*
X74220000Y-54152323D02*
X70611000Y-54152323D01*
X74220000Y-54192323D02*
X70623000Y-54192323D01*
X74220000Y-54232323D02*
X70636000Y-54232323D01*
X74220000Y-54272323D02*
X70650000Y-54272323D01*
X74220000Y-54312323D02*
X70663000Y-54312323D01*
X74220000Y-54352323D02*
X70678000Y-54352323D01*
X74220000Y-54392323D02*
X70692000Y-54392323D01*
X74220000Y-54432323D02*
X70707000Y-54432323D01*
X74220000Y-54472323D02*
X70722000Y-54472323D01*
X74220000Y-54512323D02*
X70738000Y-54512323D01*
X74220000Y-54552323D02*
X70754000Y-54552323D01*
X74220000Y-54592323D02*
X70770000Y-54592323D01*
X74220000Y-54632323D02*
X70787000Y-54632323D01*
X74220000Y-54672323D02*
X70804000Y-54672323D01*
X74220000Y-54712323D02*
X70822000Y-54712323D01*
X74220000Y-54752323D02*
X70840000Y-54752323D01*
X74220000Y-54792323D02*
X70858000Y-54792323D01*
X74220000Y-54832323D02*
X70877000Y-54832323D01*
X74220000Y-54872323D02*
X70896000Y-54872323D01*
X74220000Y-54912323D02*
X70916000Y-54912323D01*
X74220000Y-54952323D02*
X70936000Y-54952323D01*
X74220000Y-54992323D02*
X70956000Y-54992323D01*
X74220000Y-55032323D02*
X70977000Y-55032323D01*
X74220000Y-55072323D02*
X70999000Y-55072323D01*
X74220000Y-55112323D02*
X71021000Y-55112323D01*
X74220000Y-55152323D02*
X71043000Y-55152323D01*
X74220000Y-55192323D02*
X71066000Y-55192323D01*
X74220000Y-55232323D02*
X71089000Y-55232323D01*
X74220000Y-55272323D02*
X71113000Y-55272323D01*
X74220000Y-55312323D02*
X71137000Y-55312323D01*
X74220000Y-55352323D02*
X71162000Y-55352323D01*
X74220000Y-55392323D02*
X71188000Y-55392323D01*
X74220000Y-55432323D02*
X71213000Y-55432323D01*
X74220000Y-55472323D02*
X71240000Y-55472323D01*
X74220000Y-55512323D02*
X71267000Y-55512323D01*
X74220000Y-55552323D02*
X71294000Y-55552323D01*
X74220000Y-55592323D02*
X71322000Y-55592323D01*
X74220000Y-55632323D02*
X71351000Y-55632323D01*
X74220000Y-55672323D02*
X71380000Y-55672323D01*
X74220000Y-55712323D02*
X71410000Y-55712323D01*
X74220000Y-55752323D02*
X71440000Y-55752323D01*
X74220000Y-55792323D02*
X71472000Y-55792323D01*
X74220000Y-55832323D02*
X71503000Y-55832323D01*
X74220000Y-55872323D02*
X71536000Y-55872323D01*
X74220000Y-55912323D02*
X71569000Y-55912323D01*
X74220000Y-55952323D02*
X71602000Y-55952323D01*
X74220000Y-55992323D02*
X71637000Y-55992323D01*
X74220000Y-56032323D02*
X71672000Y-56032323D01*
X74220000Y-56072323D02*
X71708000Y-56072323D01*
X74220000Y-56112323D02*
X71744000Y-56112323D01*
X74220000Y-56152323D02*
X71782000Y-56152323D01*
X74220000Y-56192323D02*
X71820000Y-56192323D01*
X74220000Y-56232323D02*
X71859000Y-56232323D01*
X74220000Y-56272323D02*
X71899000Y-56272323D01*
X74220000Y-56312323D02*
X71940000Y-56312323D01*
X74220000Y-56352323D02*
X71982000Y-56352323D01*
X76059000Y-57712323D02*
X74861000Y-57712323D01*
X76322000Y-57672323D02*
X74598000Y-57672323D01*
X76522000Y-57632323D02*
X74398000Y-57632323D01*
X76690000Y-57592323D02*
X74230000Y-57592323D01*
X76837000Y-57552323D02*
X74083000Y-57552323D01*
X76969000Y-57512323D02*
X73951000Y-57512323D01*
X77090000Y-57472323D02*
X73830000Y-57472323D01*
X77202000Y-57432323D02*
X73718000Y-57432323D01*
X77306000Y-57392323D02*
X73614000Y-57392323D01*
X77404000Y-57352323D02*
X73516000Y-57352323D01*
X77497000Y-57312323D02*
X73423000Y-57312323D01*
X77584000Y-57272323D02*
X73336000Y-57272323D01*
X77668000Y-57232323D02*
X73252000Y-57232323D01*
X77748000Y-57192323D02*
X73172000Y-57192323D01*
X77825000Y-57152323D02*
X73095000Y-57152323D01*
X77899000Y-57112323D02*
X73021000Y-57112323D01*
X77970000Y-57072323D02*
X72950000Y-57072323D01*
X78038000Y-57032323D02*
X72882000Y-57032323D01*
X78104000Y-56992323D02*
X72816000Y-56992323D01*
X78168000Y-56952323D02*
X72752000Y-56952323D01*
X78230000Y-56912323D02*
X72690000Y-56912323D01*
X78290000Y-56872323D02*
X72630000Y-56872323D01*
X78335000Y-47152677D02*
X78335000Y-48152677D01*
X78348000Y-56832323D02*
X72572000Y-56832323D01*
X78405000Y-56792323D02*
X72515000Y-56792323D01*
X78460000Y-56752323D02*
X72460000Y-56752323D01*
X78513000Y-56712323D02*
X72407000Y-56712323D01*
X78565000Y-56672323D02*
X72355000Y-56672323D01*
X78616000Y-56632323D02*
X72304000Y-56632323D01*
X78665000Y-56592323D02*
X72255000Y-56592323D01*
X78714000Y-56552323D02*
X72206000Y-56552323D01*
X78761000Y-56512323D02*
X72159000Y-56512323D01*
X78807000Y-56472323D02*
X72113000Y-56472323D01*
X78835000Y-47652677D02*
X77835000Y-47652677D01*
X78851000Y-56432323D02*
X72069000Y-56432323D01*
X78895000Y-56392323D02*
X72025000Y-56392323D01*
X78938000Y-56352323D02*
X76700000Y-56352323D01*
X78980000Y-56312323D02*
X76700000Y-56312323D01*
X79021000Y-56272323D02*
X76700000Y-56272323D01*
X79061000Y-56232323D02*
X76700000Y-56232323D01*
X79100000Y-56192323D02*
X76700000Y-56192323D01*
X79138000Y-56152323D02*
X76700000Y-56152323D01*
X79176000Y-56112323D02*
X76700000Y-56112323D01*
X79212000Y-56072323D02*
X76700000Y-56072323D01*
X79248000Y-56032323D02*
X76700000Y-56032323D01*
X79283000Y-55992323D02*
X76700000Y-55992323D01*
X79318000Y-55952323D02*
X76700000Y-55952323D01*
X79351000Y-55912323D02*
X76700000Y-55912323D01*
X79384000Y-55872323D02*
X76700000Y-55872323D01*
X79417000Y-55832323D02*
X76700000Y-55832323D01*
X79448000Y-55792323D02*
X76700000Y-55792323D01*
X79480000Y-55752323D02*
X76700000Y-55752323D01*
X79510000Y-55712323D02*
X76700000Y-55712323D01*
X79540000Y-55672323D02*
X76700000Y-55672323D01*
X79569000Y-55632323D02*
X76700000Y-55632323D01*
X79598000Y-55592323D02*
X76700000Y-55592323D01*
X79626000Y-55552323D02*
X76700000Y-55552323D01*
X79653000Y-55512323D02*
X76700000Y-55512323D01*
X79680000Y-55472323D02*
X76700000Y-55472323D01*
X79707000Y-55432323D02*
X76700000Y-55432323D01*
X79732000Y-55392323D02*
X76700000Y-55392323D01*
X79758000Y-55352323D02*
X76700000Y-55352323D01*
X79783000Y-55312323D02*
X76700000Y-55312323D01*
X79807000Y-55272323D02*
X76700000Y-55272323D01*
X79831000Y-55232323D02*
X76700000Y-55232323D01*
X79854000Y-55192323D02*
X76700000Y-55192323D01*
X79877000Y-55152323D02*
X76700000Y-55152323D01*
X79899000Y-55112323D02*
X76700000Y-55112323D01*
X79921000Y-55072323D02*
X76700000Y-55072323D01*
X79943000Y-55032323D02*
X76700000Y-55032323D01*
X79964000Y-54992323D02*
X76700000Y-54992323D01*
X79984000Y-54952323D02*
X76700000Y-54952323D01*
X80004000Y-54912323D02*
X76700000Y-54912323D01*
X80024000Y-54872323D02*
X76700000Y-54872323D01*
X80043000Y-54832323D02*
X76700000Y-54832323D01*
X80062000Y-54792323D02*
X76700000Y-54792323D01*
X80080000Y-54752323D02*
X76700000Y-54752323D01*
X80098000Y-54712323D02*
X76700000Y-54712323D01*
X80116000Y-54672323D02*
X76700000Y-54672323D01*
X80133000Y-54632323D02*
X76700000Y-54632323D01*
X80150000Y-54592323D02*
X76700000Y-54592323D01*
X80166000Y-54552323D02*
X76700000Y-54552323D01*
X80182000Y-54512323D02*
X76700000Y-54512323D01*
X80198000Y-54472323D02*
X76700000Y-54472323D01*
X80213000Y-54432323D02*
X76700000Y-54432323D01*
X80228000Y-54392323D02*
X76700000Y-54392323D01*
X80242000Y-54352323D02*
X76700000Y-54352323D01*
X80257000Y-54312323D02*
X76700000Y-54312323D01*
X80270000Y-54272323D02*
X76700000Y-54272323D01*
X80284000Y-54232323D02*
X76700000Y-54232323D01*
X80297000Y-54192323D02*
X76700000Y-54192323D01*
X80309000Y-54152323D02*
X76700000Y-54152323D01*
X80321000Y-54112323D02*
X76700000Y-54112323D01*
X80333000Y-54072323D02*
X76700000Y-54072323D01*
X80345000Y-54032323D02*
X76700000Y-54032323D01*
X80356000Y-53992323D02*
X76700000Y-53992323D01*
X80367000Y-53952323D02*
X76700000Y-53952323D01*
X80377000Y-53912323D02*
X76700000Y-53912323D01*
X80388000Y-53872323D02*
X70532000Y-53872323D01*
X80397000Y-53832323D02*
X70523000Y-53832323D01*
X80407000Y-53792323D02*
X70513000Y-53792323D01*
X80416000Y-53752323D02*
X70504000Y-53752323D01*
X80425000Y-53712323D02*
X70495000Y-53712323D01*
X80433000Y-53672323D02*
X70487000Y-53672323D01*
X80441000Y-53632323D02*
X70479000Y-53632323D01*
X80449000Y-53592323D02*
X70471000Y-53592323D01*
X80457000Y-53552323D02*
X70463000Y-53552323D01*
X80464000Y-53512323D02*
X70456000Y-53512323D01*
X80471000Y-53472323D02*
X70449000Y-53472323D01*
X80477000Y-53432323D02*
X70443000Y-53432323D01*
X80483000Y-53392323D02*
X70437000Y-53392323D01*
X80489000Y-53352323D02*
X70431000Y-53352323D01*
X80495000Y-53312323D02*
X70425000Y-53312323D01*
X80500000Y-53272323D02*
X70420000Y-53272323D01*
X80505000Y-53232323D02*
X70415000Y-53232323D01*
X80509000Y-53192323D02*
X70411000Y-53192323D01*
X80514000Y-53152323D02*
X70406000Y-53152323D01*
X80517000Y-53112323D02*
X70403000Y-53112323D01*
X80521000Y-53072323D02*
X70399000Y-53072323D01*
X80524000Y-53032323D02*
X70396000Y-53032323D01*
X80527000Y-52992323D02*
X70393000Y-52992323D01*
X80530000Y-52952323D02*
X70390000Y-52952323D01*
X80532000Y-52912323D02*
X70388000Y-52912323D01*
X80534000Y-52872323D02*
X70386000Y-52872323D01*
X80536000Y-52832323D02*
X70384000Y-52832323D01*
X80537000Y-52792323D02*
X70383000Y-52792323D01*
X80539000Y-52712323D02*
X70381000Y-52712323D01*
X80539000Y-52752323D02*
X70381000Y-52752323D01*
X80540000Y-52632323D02*
X70380000Y-52632323D01*
X80540000Y-52672323D02*
X70380000Y-52672323D01*
X80580000Y-52632323D02*
G75*
G02*
X70340000Y-52632323I-5120000J0D01*
G01*
X70340000Y-52632323D02*
G75*
G02*
X80580000Y-52632323I5120000J0D01*
G01*
%TO.C,U1*%
X123796385Y-39596506D02*
X134016385Y-39596506D01*
X123796385Y-40976506D02*
X134016385Y-40976506D01*
X123796385Y-44216506D02*
X123796385Y-39596506D01*
X127056385Y-39596506D02*
X127056385Y-40976506D01*
X130756385Y-39596506D02*
X130756385Y-40976506D01*
X134016385Y-39596506D02*
X134016385Y-44216506D01*
X134016385Y-44216506D02*
X123796385Y-44216506D01*
%TO.C,C8*%
X166130000Y-52130000D02*
X168870000Y-52130000D01*
X166130000Y-57370000D02*
X166130000Y-52130000D01*
X168870000Y-52130000D02*
X168870000Y-57370000D01*
X168870000Y-57370000D02*
X166130000Y-57370000D01*
%TO.C,Rc3*%
X145388872Y-118653229D02*
X145388872Y-125193229D01*
X145388872Y-125193229D02*
X145718872Y-125193229D01*
X145718872Y-118653229D02*
X145388872Y-118653229D01*
X147798872Y-118653229D02*
X148128872Y-118653229D01*
X148128872Y-118653229D02*
X148128872Y-125193229D01*
X148128872Y-125193229D02*
X147798872Y-125193229D01*
%TO.C,JP7*%
X155320000Y-95720000D02*
X156700000Y-95720000D01*
X155320000Y-97100000D02*
X155320000Y-95720000D01*
X155320000Y-98370000D02*
X155320000Y-101020000D01*
X155320000Y-98370000D02*
X158080000Y-98370000D01*
X155320000Y-101020000D02*
X158080000Y-101020000D01*
X158080000Y-98370000D02*
X158080000Y-101020000D01*
%TO.C,J7*%
X164080000Y-58120000D02*
X164080000Y-60880000D01*
X166730000Y-58120000D02*
X164080000Y-58120000D01*
X166730000Y-58120000D02*
X166730000Y-60880000D01*
X166730000Y-60880000D02*
X164080000Y-60880000D01*
X168000000Y-58120000D02*
X169380000Y-58120000D01*
X169380000Y-58120000D02*
X169380000Y-59500000D01*
%TO.C,R6*%
X167930000Y-81030000D02*
X174470000Y-81030000D01*
X167930000Y-81360000D02*
X167930000Y-81030000D01*
X167930000Y-83440000D02*
X167930000Y-83770000D01*
X167930000Y-83770000D02*
X174470000Y-83770000D01*
X174470000Y-81030000D02*
X174470000Y-81360000D01*
X174470000Y-83770000D02*
X174470000Y-83440000D01*
%TO.C,Q1*%
X93640000Y-45390000D02*
X98260000Y-45390000D01*
X93640000Y-55610000D02*
X93640000Y-45390000D01*
X96880000Y-45390000D02*
X96880000Y-55610000D01*
X98260000Y-45390000D02*
X98260000Y-55610000D01*
X98260000Y-48650000D02*
X96880000Y-48650000D01*
X98260000Y-52350000D02*
X96880000Y-52350000D01*
X98260000Y-55610000D02*
X93640000Y-55610000D01*
%TO.C,JP6*%
X136230000Y-70880000D02*
X133580000Y-70880000D01*
X133580000Y-68120000D02*
X133580000Y-70880000D01*
X136230000Y-68120000D02*
X136230000Y-70880000D01*
X136230000Y-68120000D02*
X133580000Y-68120000D01*
X137500000Y-68120000D02*
X138880000Y-68120000D01*
X138880000Y-68120000D02*
X138880000Y-69500000D01*
%TO.C,C5*%
X157580000Y-57930000D02*
X162820000Y-57930000D01*
X157580000Y-60670000D02*
X157580000Y-57930000D01*
X162820000Y-57930000D02*
X162820000Y-60670000D01*
X162820000Y-60670000D02*
X157580000Y-60670000D01*
%TO.C,R11*%
X170630000Y-121540000D02*
X170630000Y-128080000D01*
X170630000Y-128080000D02*
X170960000Y-128080000D01*
X170960000Y-121540000D02*
X170630000Y-121540000D01*
X173040000Y-121540000D02*
X173370000Y-121540000D01*
X173370000Y-121540000D02*
X173370000Y-128080000D01*
X173370000Y-128080000D02*
X173040000Y-128080000D01*
%TO.C,Cc1*%
X155396289Y-108530000D02*
X158136289Y-108530000D01*
X155396289Y-113770000D02*
X155396289Y-108530000D01*
X158136289Y-108530000D02*
X158136289Y-113770000D01*
X158136289Y-113770000D02*
X155396289Y-113770000D01*
%TO.C,J1*%
X47340000Y-46880000D02*
X55380000Y-46880000D01*
X47340000Y-57620000D02*
X47340000Y-46880000D01*
X50960000Y-47688000D02*
X50960000Y-46880000D01*
X50960000Y-52620000D02*
X50960000Y-51312000D01*
X50960000Y-57620000D02*
X50960000Y-56380000D01*
X51960000Y-47688000D02*
X51960000Y-46880000D01*
X51960000Y-52620000D02*
X51960000Y-51312000D01*
X51960000Y-57620000D02*
X51960000Y-56380000D01*
X53260000Y-48957000D02*
X53260000Y-46880000D01*
X53260000Y-52620000D02*
X53260000Y-50043000D01*
X53260000Y-57620000D02*
X53260000Y-56380000D01*
X55380000Y-46880000D02*
X55380000Y-54200000D01*
X55380000Y-54800000D02*
X55380000Y-57620000D01*
X55380000Y-57620000D02*
X47340000Y-57620000D01*
X55990000Y-54940000D02*
X55380000Y-54500000D01*
X55990000Y-54060000D01*
X55990000Y-54940000D01*
G36*
X55990000Y-54940000D02*
G01*
X55380000Y-54500000D01*
X55990000Y-54060000D01*
X55990000Y-54940000D01*
G37*
%TO.C,D1*%
X85280000Y-50130000D02*
X85280000Y-59870000D01*
X85280000Y-59870000D02*
X86160000Y-59870000D01*
X86160000Y-50130000D02*
X85280000Y-50130000D01*
X89840000Y-50130000D02*
X90720000Y-50130000D01*
X90720000Y-50130000D02*
X90720000Y-59870000D01*
X90720000Y-51555000D02*
X85280000Y-51555000D01*
X90720000Y-51675000D02*
X85280000Y-51675000D01*
X90720000Y-51795000D02*
X85280000Y-51795000D01*
X90720000Y-59870000D02*
X89840000Y-59870000D01*
%TO.C,J5*%
X133620000Y-101080000D02*
X135000000Y-101080000D01*
X133620000Y-102460000D02*
X133620000Y-101080000D01*
X133620000Y-103730000D02*
X133620000Y-106380000D01*
X133620000Y-103730000D02*
X136380000Y-103730000D01*
X133620000Y-106380000D02*
X136380000Y-106380000D01*
X136380000Y-103730000D02*
X136380000Y-106380000D01*
%TO.C,R15*%
X170630000Y-133540000D02*
X170630000Y-140080000D01*
X170630000Y-140080000D02*
X170960000Y-140080000D01*
X170960000Y-133540000D02*
X170630000Y-133540000D01*
X173040000Y-133540000D02*
X173370000Y-133540000D01*
X173370000Y-133540000D02*
X173370000Y-140080000D01*
X173370000Y-140080000D02*
X173040000Y-140080000D01*
%TO.C,R3*%
X71630000Y-91230000D02*
X71960000Y-91230000D01*
X71630000Y-97770000D02*
X71630000Y-91230000D01*
X71960000Y-97770000D02*
X71630000Y-97770000D01*
X74040000Y-97770000D02*
X74370000Y-97770000D01*
X74370000Y-91230000D02*
X74040000Y-91230000D01*
X74370000Y-97770000D02*
X74370000Y-91230000D01*
%TO.C,U6*%
X155139702Y-119526768D02*
X155139702Y-124026768D01*
X155139702Y-124026768D02*
X165419702Y-124026768D01*
X165419702Y-119526768D02*
X155139702Y-119526768D01*
X165419702Y-120776768D02*
X165419702Y-119526768D01*
X165419702Y-124026768D02*
X165419702Y-122776768D01*
X155079702Y-116526768D02*
X165479702Y-116526768D01*
X165479702Y-127026768D01*
X155079702Y-127026768D01*
X155079702Y-116526768D01*
X165419702Y-122776768D02*
G75*
G02*
X165419702Y-120776768I0J1000000D01*
G01*
%TO.C,JP4*%
X141120000Y-42780000D02*
X141120000Y-41400000D01*
X142500000Y-42780000D02*
X141120000Y-42780000D01*
X143770000Y-40020000D02*
X146420000Y-40020000D01*
X143770000Y-42780000D02*
X143770000Y-40020000D01*
X143770000Y-42780000D02*
X146420000Y-42780000D01*
X146420000Y-42780000D02*
X146420000Y-40020000D01*
%TO.C,D2*%
X80130000Y-77280000D02*
X80130000Y-78160000D01*
X80130000Y-82720000D02*
X80130000Y-81840000D01*
X88205000Y-82720000D02*
X88205000Y-77280000D01*
X88325000Y-82720000D02*
X88325000Y-77280000D01*
X88445000Y-82720000D02*
X88445000Y-77280000D01*
X89870000Y-77280000D02*
X80130000Y-77280000D01*
X89870000Y-78160000D02*
X89870000Y-77280000D01*
X89870000Y-81840000D02*
X89870000Y-82720000D01*
X89870000Y-82720000D02*
X80130000Y-82720000D01*
%TO.C,J4*%
X50120000Y-65580000D02*
X51500000Y-65580000D01*
X50120000Y-66960000D02*
X50120000Y-65580000D01*
X50120000Y-68230000D02*
X50120000Y-70880000D01*
X50120000Y-68230000D02*
X52880000Y-68230000D01*
X50120000Y-70880000D02*
X52880000Y-70880000D01*
X52880000Y-68230000D02*
X52880000Y-70880000D01*
%TO.C,R4*%
X156122059Y-134373096D02*
X156122059Y-134703096D01*
X156122059Y-137113096D02*
X156122059Y-136783096D01*
X162662059Y-134373096D02*
X156122059Y-134373096D01*
X162662059Y-134703096D02*
X162662059Y-134373096D01*
X162662059Y-136783096D02*
X162662059Y-137113096D01*
X162662059Y-137113096D02*
X156122059Y-137113096D01*
%TO.C,TP5*%
X96620000Y-78620000D02*
X98000000Y-78620000D01*
X96620000Y-80000000D02*
X96620000Y-78620000D01*
X96620000Y-81270000D02*
X96620000Y-81380000D01*
X96620000Y-81270000D02*
X99380000Y-81270000D01*
X96620000Y-81380000D02*
X99380000Y-81380000D01*
X99380000Y-81270000D02*
X99380000Y-81380000D01*
%TO.C,R5*%
X157630000Y-62420000D02*
X157960000Y-62420000D01*
X157630000Y-68960000D02*
X157630000Y-62420000D01*
X157960000Y-68960000D02*
X157630000Y-68960000D01*
X160040000Y-68960000D02*
X160370000Y-68960000D01*
X160370000Y-62420000D02*
X160040000Y-62420000D01*
X160370000Y-68960000D02*
X160370000Y-62420000D01*
%TO.C,J9*%
X49120000Y-105085000D02*
X49120000Y-103705000D01*
X50500000Y-105085000D02*
X49120000Y-105085000D01*
X51770000Y-102325000D02*
X54420000Y-102325000D01*
X51770000Y-105085000D02*
X51770000Y-102325000D01*
X51770000Y-105085000D02*
X54420000Y-105085000D01*
X54420000Y-105085000D02*
X54420000Y-102325000D01*
%TO.C,C4*%
X63920000Y-91710000D02*
X69080000Y-91710000D01*
X63920000Y-91750000D02*
X69080000Y-91750000D01*
X63921000Y-91670000D02*
X69079000Y-91670000D01*
X63923000Y-91630000D02*
X69077000Y-91630000D01*
X63925000Y-91590000D02*
X69075000Y-91590000D01*
X63928000Y-91550000D02*
X69072000Y-91550000D01*
X63931000Y-91510000D02*
X65460000Y-91510000D01*
X63935000Y-91470000D02*
X65460000Y-91470000D01*
X63940000Y-91430000D02*
X65460000Y-91430000D01*
X63945000Y-91390000D02*
X65460000Y-91390000D01*
X63951000Y-91350000D02*
X65460000Y-91350000D01*
X63957000Y-91310000D02*
X65460000Y-91310000D01*
X63964000Y-91270000D02*
X65460000Y-91270000D01*
X63972000Y-91230000D02*
X65460000Y-91230000D01*
X63981000Y-91190000D02*
X65460000Y-91190000D01*
X63990000Y-91150000D02*
X65460000Y-91150000D01*
X63999000Y-91110000D02*
X65460000Y-91110000D01*
X64010000Y-91070000D02*
X65460000Y-91070000D01*
X64021000Y-91030000D02*
X65460000Y-91030000D01*
X64033000Y-90990000D02*
X65460000Y-90990000D01*
X64045000Y-90950000D02*
X65460000Y-90950000D01*
X64058000Y-90910000D02*
X65460000Y-90910000D01*
X64072000Y-90870000D02*
X65460000Y-90870000D01*
X64087000Y-90830000D02*
X65460000Y-90830000D01*
X64102000Y-90790000D02*
X65460000Y-90790000D01*
X64118000Y-90750000D02*
X65460000Y-90750000D01*
X64135000Y-90710000D02*
X65460000Y-90710000D01*
X64153000Y-90670000D02*
X65460000Y-90670000D01*
X64171000Y-90630000D02*
X65460000Y-90630000D01*
X64191000Y-90590000D02*
X65460000Y-90590000D01*
X64211000Y-90550000D02*
X65460000Y-90550000D01*
X64232000Y-90510000D02*
X65460000Y-90510000D01*
X64254000Y-90470000D02*
X65460000Y-90470000D01*
X64277000Y-90430000D02*
X65460000Y-90430000D01*
X64301000Y-90390000D02*
X65460000Y-90390000D01*
X64325000Y-90350000D02*
X65460000Y-90350000D01*
X64351000Y-90310000D02*
X65460000Y-90310000D01*
X64378000Y-90270000D02*
X65460000Y-90270000D01*
X64406000Y-90230000D02*
X65460000Y-90230000D01*
X64435000Y-90190000D02*
X65460000Y-90190000D01*
X64465000Y-90150000D02*
X65460000Y-90150000D01*
X64497000Y-90110000D02*
X65460000Y-90110000D01*
X64530000Y-90070000D02*
X65460000Y-90070000D01*
X64564000Y-90030000D02*
X65460000Y-90030000D01*
X64599000Y-89990000D02*
X65460000Y-89990000D01*
X64636000Y-89950000D02*
X65460000Y-89950000D01*
X64675000Y-89910000D02*
X65460000Y-89910000D01*
X64715000Y-89870000D02*
X65460000Y-89870000D01*
X64757000Y-89830000D02*
X65460000Y-89830000D01*
X64775000Y-94304775D02*
X65275000Y-94304775D01*
X64801000Y-89790000D02*
X65460000Y-89790000D01*
X64848000Y-89750000D02*
X65460000Y-89750000D01*
X64896000Y-89710000D02*
X65460000Y-89710000D01*
X64947000Y-89670000D02*
X65460000Y-89670000D01*
X65001000Y-89630000D02*
X65460000Y-89630000D01*
X65025000Y-94554775D02*
X65025000Y-94054775D01*
X65057000Y-89590000D02*
X65460000Y-89590000D01*
X65117000Y-89550000D02*
X65460000Y-89550000D01*
X65181000Y-89510000D02*
X65460000Y-89510000D01*
X65249000Y-89470000D02*
X65460000Y-89470000D01*
X65323000Y-89430000D02*
X67677000Y-89430000D01*
X65402000Y-89390000D02*
X67598000Y-89390000D01*
X65489000Y-89350000D02*
X67511000Y-89350000D01*
X65586000Y-89310000D02*
X67414000Y-89310000D01*
X65695000Y-89270000D02*
X67305000Y-89270000D01*
X65823000Y-89230000D02*
X67177000Y-89230000D01*
X65983000Y-89190000D02*
X67017000Y-89190000D01*
X66217000Y-89150000D02*
X66783000Y-89150000D01*
X67540000Y-89470000D02*
X67751000Y-89470000D01*
X67540000Y-89510000D02*
X67819000Y-89510000D01*
X67540000Y-89550000D02*
X67883000Y-89550000D01*
X67540000Y-89590000D02*
X67943000Y-89590000D01*
X67540000Y-89630000D02*
X67999000Y-89630000D01*
X67540000Y-89670000D02*
X68053000Y-89670000D01*
X67540000Y-89710000D02*
X68104000Y-89710000D01*
X67540000Y-89750000D02*
X68152000Y-89750000D01*
X67540000Y-89790000D02*
X68199000Y-89790000D01*
X67540000Y-89830000D02*
X68243000Y-89830000D01*
X67540000Y-89870000D02*
X68285000Y-89870000D01*
X67540000Y-89910000D02*
X68325000Y-89910000D01*
X67540000Y-89950000D02*
X68364000Y-89950000D01*
X67540000Y-89990000D02*
X68401000Y-89990000D01*
X67540000Y-90030000D02*
X68436000Y-90030000D01*
X67540000Y-90070000D02*
X68470000Y-90070000D01*
X67540000Y-90110000D02*
X68503000Y-90110000D01*
X67540000Y-90150000D02*
X68535000Y-90150000D01*
X67540000Y-90190000D02*
X68565000Y-90190000D01*
X67540000Y-90230000D02*
X68594000Y-90230000D01*
X67540000Y-90270000D02*
X68622000Y-90270000D01*
X67540000Y-90310000D02*
X68649000Y-90310000D01*
X67540000Y-90350000D02*
X68675000Y-90350000D01*
X67540000Y-90390000D02*
X68699000Y-90390000D01*
X67540000Y-90430000D02*
X68723000Y-90430000D01*
X67540000Y-90470000D02*
X68746000Y-90470000D01*
X67540000Y-90510000D02*
X68768000Y-90510000D01*
X67540000Y-90550000D02*
X68789000Y-90550000D01*
X67540000Y-90590000D02*
X68809000Y-90590000D01*
X67540000Y-90630000D02*
X68829000Y-90630000D01*
X67540000Y-90670000D02*
X68847000Y-90670000D01*
X67540000Y-90710000D02*
X68865000Y-90710000D01*
X67540000Y-90750000D02*
X68882000Y-90750000D01*
X67540000Y-90790000D02*
X68898000Y-90790000D01*
X67540000Y-90830000D02*
X68913000Y-90830000D01*
X67540000Y-90870000D02*
X68928000Y-90870000D01*
X67540000Y-90910000D02*
X68942000Y-90910000D01*
X67540000Y-90950000D02*
X68955000Y-90950000D01*
X67540000Y-90990000D02*
X68967000Y-90990000D01*
X67540000Y-91030000D02*
X68979000Y-91030000D01*
X67540000Y-91070000D02*
X68990000Y-91070000D01*
X67540000Y-91110000D02*
X69001000Y-91110000D01*
X67540000Y-91150000D02*
X69010000Y-91150000D01*
X67540000Y-91190000D02*
X69019000Y-91190000D01*
X67540000Y-91230000D02*
X69028000Y-91230000D01*
X67540000Y-91270000D02*
X69036000Y-91270000D01*
X67540000Y-91310000D02*
X69043000Y-91310000D01*
X67540000Y-91350000D02*
X69049000Y-91350000D01*
X67540000Y-91390000D02*
X69055000Y-91390000D01*
X67540000Y-91430000D02*
X69060000Y-91430000D01*
X67540000Y-91470000D02*
X69065000Y-91470000D01*
X67540000Y-91510000D02*
X69069000Y-91510000D01*
X69120000Y-91750000D02*
G75*
G02*
X63880000Y-91750000I-2620000J0D01*
G01*
X63880000Y-91750000D02*
G75*
G02*
X69120000Y-91750000I2620000J0D01*
G01*
%TO.C,JP9*%
X95421230Y-70670224D02*
X95421230Y-73430224D01*
X98071230Y-70670224D02*
X95421230Y-70670224D01*
X98071230Y-70670224D02*
X98071230Y-73430224D01*
X98071230Y-73430224D02*
X95421230Y-73430224D01*
X99341230Y-70670224D02*
X100721230Y-70670224D01*
X100721230Y-70670224D02*
X100721230Y-72050224D01*
%TO.C,J3*%
X46347500Y-87630000D02*
X54387500Y-87630000D01*
X46347500Y-98370000D02*
X46347500Y-87630000D01*
X49967500Y-88438000D02*
X49967500Y-87630000D01*
X49967500Y-93370000D02*
X49967500Y-92062000D01*
X49967500Y-98370000D02*
X49967500Y-97130000D01*
X50967500Y-88438000D02*
X50967500Y-87630000D01*
X50967500Y-93370000D02*
X50967500Y-92062000D01*
X50967500Y-98370000D02*
X50967500Y-97130000D01*
X52267500Y-89707000D02*
X52267500Y-87630000D01*
X52267500Y-93370000D02*
X52267500Y-90793000D01*
X52267500Y-98370000D02*
X52267500Y-97130000D01*
X54387500Y-87630000D02*
X54387500Y-94950000D01*
X54387500Y-95550000D02*
X54387500Y-98370000D01*
X54387500Y-98370000D02*
X46347500Y-98370000D01*
X54997500Y-95690000D02*
X54387500Y-95250000D01*
X54997500Y-94810000D01*
X54997500Y-95690000D01*
G36*
X54997500Y-95690000D02*
G01*
X54387500Y-95250000D01*
X54997500Y-94810000D01*
X54997500Y-95690000D01*
G37*
%TD*%
M02*
